SplineFontDB: 3.2
FontName: PMDG_NG3_DU_B
FullName: PMDG_NG3_DU_B
FamilyName: PMDG_NG3_DU_B
Weight: Book
Copyright: Copyright (c) 2008-2019 Precision Manuals Development Group. All rights reserved. Modified by Oudoum.
Version: 001.000
ItalicAngle: 0
UnderlinePosition: -125
UnderlineWidth: 62
Ascent: 800
Descent: 200
InvalidEm: 0
sfntRevision: 0x00010000
LayerCount: 2
Layer: 0 1 "Hinten" 1
Layer: 1 1 "Vorne" 0
XUID: [1021 29 -729883645 27298]
StyleMap: 0x0040
FSType: 0
OS2Version: 2
OS2_WeightWidthSlopeOnly: 0
OS2_UseTypoMetrics: 0
CreationTime: 1395059360
ModificationTime: 1698602582
PfmFamily: 81
TTFWeight: 400
TTFWidth: 5
LineGap: 57
VLineGap: 0
Panose: 0 0 0 0 0 0 0 0 0 0
OS2TypoAscent: 875
OS2TypoAOffset: 0
OS2TypoDescent: 0
OS2TypoDOffset: 0
OS2TypoLinegap: 57
OS2WinAscent: 875
OS2WinAOffset: 0
OS2WinDescent: 118
OS2WinDOffset: 0
HheadAscent: 875
HheadAOffset: 0
HheadDescent: 0
HheadDOffset: 0
OS2SubXSize: 700
OS2SubYSize: 650
OS2SubXOff: 0
OS2SubYOff: 140
OS2SupXSize: 700
OS2SupYSize: 650
OS2SupXOff: 0
OS2SupYOff: 477
OS2StrikeYSize: 50
OS2StrikeYPos: 250
OS2CapHeight: 875
OS2XHeight: 625
OS2Vendor: 'pyrs'
OS2CodePages: 00000001.00000000
OS2UnicodeRanges: 80000003.00000000.00000000.00000000
MarkAttachClasses: 1
DEI: 91125
TtTable: prep
PUSHW_1
 0
CALL
EndTTInstrs
TtTable: fpgm
PUSHW_1
 0
FDEF
MPPEM
PUSHW_1
 9
LT
IF
PUSHB_2
 1
 1
INSTCTRL
EIF
PUSHW_1
 511
SCANCTRL
PUSHW_1
 68
SCVTCI
PUSHW_2
 9
 3
SDS
SDB
ENDF
PUSHW_1
 1
FDEF
DUP
DUP
RCVT
ROUND[Black]
WCVTP
PUSHB_1
 1
ADD
ENDF
PUSHW_1
 2
FDEF
PUSHW_1
 1
LOOPCALL
POP
ENDF
PUSHW_1
 3
FDEF
DUP
GC[cur]
PUSHB_1
 3
CINDEX
GC[cur]
GT
IF
SWAP
EIF
DUP
ROLL
DUP
ROLL
MD[grid]
ABS
ROLL
DUP
GC[cur]
DUP
ROUND[Grey]
SUB
ABS
PUSHB_1
 4
CINDEX
GC[cur]
DUP
ROUND[Grey]
SUB
ABS
GT
IF
SWAP
NEG
ROLL
EIF
MDAP[rnd]
DUP
PUSHB_1
 0
GTEQ
IF
ROUND[Black]
DUP
PUSHB_1
 0
EQ
IF
POP
PUSHB_1
 64
EIF
ELSE
ROUND[Black]
DUP
PUSHB_1
 0
EQ
IF
POP
PUSHB_1
 64
NEG
EIF
EIF
MSIRP[no-rp0]
ENDF
PUSHW_1
 4
FDEF
DUP
GC[cur]
PUSHB_1
 4
CINDEX
GC[cur]
GT
IF

StartChar: exclam
Encoding: 33 33 4
Width: 425
GlyphClass: 2
Flags: W
LayerCount: 2
Fore
SplineSet
174 625 m 1,0,1
 178 645 178 645 190 655 c 128,-1,2
 202 665 202 665 216 665 c 0,3,4
 229 665 229 665 240.5 656 c 128,-1,5
 252 647 252 647 258 629 c 1,6,-1
 258 239 l 2,7,8
 256 216 256 216 243.5 204 c 128,-1,9
 231 192 231 192 216 192 c 0,10,11
 202 192 202 192 189.5 202.5 c 128,-1,12
 177 213 177 213 174 236 c 2,13,-1
 174 625 l 1,14,-1
 174 625 l 1,0,1
157 59 m 0,15,16
 157 84 157 84 174 101.5 c 128,-1,17
 191 119 191 119 216 119 c 256,18,19
 241 119 241 119 258 101.5 c 128,-1,20
 275 84 275 84 275 59 c 0,21,22
 275 35 275 35 258 17.5 c 128,-1,23
 241 0 241 0 216 0 c 256,24,25
 191 0 191 0 174 17.5 c 128,-1,26
 157 35 157 35 157 59 c 0,15,16
EndSplineSet
Validated: 5
EndChar

StartChar: quotedbl
Encoding: 34 34 5
Width: 425
GlyphClass: 2
Flags: W
LayerCount: 2
Fore
SplineSet
91 625 m 1,0,1
 96 645 96 645 107.5 655.5 c 128,-1,2
 119 666 119 666 133 666 c 0,3,4
 146 666 146 666 157.5 657 c 128,-1,5
 169 648 169 648 175 629 c 1,6,-1
 175 474 l 2,7,8
 173 451 173 451 160.5 439 c 128,-1,9
 148 427 148 427 133 427 c 0,10,11
 119 427 119 427 106.5 437.5 c 128,-1,12
 94 448 94 448 91 470 c 2,13,-1
 91 625 l 1,14,-1
 91 625 l 1,0,1
238 625 m 1,15,16
 242 645 242 645 254 655.5 c 128,-1,17
 266 666 266 666 280 666 c 0,18,19
 292 666 292 666 304 657 c 128,-1,20
 316 648 316 648 321 629 c 1,21,-1
 321 474 l 2,22,23
 320 451 320 451 307 439 c 128,-1,24
 294 427 294 427 280 427 c 256,25,26
 266 427 266 427 253.5 437.5 c 128,-1,27
 241 448 241 448 238 470 c 2,28,-1
 238 625 l 1,29,-1
 238 625 l 1,15,16
EndSplineSet
Validated: 5
EndChar

StartChar: numbersign
Encoding: 35 35 6
Width: 425
GlyphClass: 2
Flags: W
LayerCount: 2
Fore
SplineSet
59 411 m 1,0,1
 36 414 36 414 25.5 426.5 c 128,-1,2
 15 439 15 439 15 453 c 0,3,4
 15 468 15 468 27 480.5 c 128,-1,5
 39 493 39 493 62 495 c 2,6,-1
 91 495 l 1,7,-1
 91 625 l 1,8,9
 96 645 96 645 107.5 655 c 128,-1,10
 119 665 119 665 133 665 c 0,11,12
 146 665 146 665 157.5 656 c 128,-1,13
 169 647 169 647 175 629 c 1,14,-1
 175 495 l 1,15,-1
 253 495 l 1,16,-1
 253 625 l 1,17,18
 257 645 257 645 269 655 c 128,-1,19
 281 665 281 665 295 665 c 0,20,21
 308 665 308 665 319.5 656 c 128,-1,22
 331 647 331 647 337 629 c 1,23,-1
 337 495 l 1,24,-1
 374 495 l 1,25,26
 392 489 392 489 401 477.5 c 128,-1,27
 410 466 410 466 410 453 c 0,28,29
 410 439 410 439 400 427 c 128,-1,30
 390 415 390 415 370 411 c 1,31,-1
 337 411 l 1,32,-1
 337 254 l 1,33,-1
 374 254 l 1,34,35
 392 248 392 248 401 236.5 c 128,-1,36
 410 225 410 225 410 212 c 0,37,38
 410 198 410 198 400 186.5 c 128,-1,39
 390 175 390 175 370 170 c 1,40,-1
 337 170 l 1,41,-1
 337 47 l 2,42,43
 335 24 335 24 322.5 12 c 128,-1,44
 310 0 310 0 295 0 c 0,45,46
 281 0 281 0 268.5 10.5 c 128,-1,47
 256 21 256 21 253 43 c 2,48,-1
 253 170 l 1,49,-1
 175 170 l 1,50,-1
 175 47 l 2,51,52
 173 24 173 24 160.5 12 c 128,-1,53
 148 0 148 0 133 0 c 0,54,55
 119 0 119 0 106.5 10.5 c 128,-1,56
 94 21 94 21 91 43 c 2,57,-1
 91 170 l 1,58,-1
 59 170 l 2,59,60
 36 173 36 173 25.5 185.5 c 128,-1,61
 15 198 15 198 15 212 c 0,62,63
 15 227 15 227 27 239.5 c 128,-1,64
 39 252 39 252 62 254 c 2,65,-1
 91 254 l 1,66,-1
 91 411 l 1,67,-1
 59 411 l 1,68,-1
 59 411 l 1,0,1
175 254 m 1,69,-1
 253 254 l 1,70,-1
 253 411 l 1,71,-1
 175 411 l 1,72,-1
 175 254 l 1,69,-1
EndSplineSet
Validated: 5
EndChar

StartChar: dollar
Encoding: 36 36 7
Width: 425
GlyphClass: 2
Flags: W
LayerCount: 2
Fore
SplineSet
173 623 m 1,0,1
 178 644 178 644 190 655.5 c 128,-1,2
 202 667 202 667 215 667 c 0,3,4
 229 667 229 667 240.5 657.5 c 128,-1,5
 252 648 252 648 258 629 c 1,6,-1
 258 602 l 1,7,8
 287 596 287 596 312.5 581 c 128,-1,9
 338 566 338 566 359 541 c 2,10,-1
 361 538 l 2,11,12
 370 526 370 526 370 515 c 0,13,14
 370 501 370 501 360 492.5 c 128,-1,15
 350 484 350 484 335 484 c 0,16,17
 319 484 319 484 301 499 c 2,18,-1
 294 506 l 2,19,20
 281 521 281 521 262 531 c 2,21,22
 262 531 262 531 258 533 c 1,23,-1
 258 382 l 1,24,25
 289 377 289 377 314 362 c 128,-1,26
 339 347 339 347 357 325.5 c 128,-1,27
 375 304 375 304 384.5 278 c 128,-1,28
 394 252 394 252 394 226 c 0,29,30
 394 196 394 196 384 169.5 c 128,-1,31
 374 143 374 143 356 122 c 128,-1,32
 338 101 338 101 313 86 c 128,-1,33
 288 71 288 71 258 65 c 1,34,-1
 258 50 l 2,35,36
 258 24 258 24 244 11 c 128,-1,37
 230 -2 230 -2 216 -2 c 0,38,39
 201 -2 201 -2 188 10 c 128,-1,40
 175 22 175 22 173 46 c 2,41,-1
 173 68 l 1,42,43
 141 76 141 76 117.5 91 c 128,-1,44
 94 106 94 106 74 128 c 1,45,-1
 72 131 l 2,46,47
 68 136 68 136 66.5 142 c 128,-1,48
 65 148 65 148 65 153 c 0,49,50
 65 166 65 166 75.5 174.5 c 128,-1,51
 86 183 86 183 100 183 c 0,52,53
 115 183 115 183 133 172 c 1,54,-1
 138 167 l 2,55,56
 143 162 143 162 152 154 c 128,-1,57
 161 146 161 146 173 140 c 1,58,-1
 173 326 l 1,59,60
 147 331 147 331 123.5 344 c 128,-1,61
 100 357 100 357 82 375 c 128,-1,62
 64 393 64 393 53.5 415.5 c 128,-1,63
 43 438 43 438 43 463 c 0,64,65
 43 487 43 487 54 509 c 128,-1,66
 65 531 65 531 83 548.5 c 128,-1,67
 101 566 101 566 124.5 579 c 128,-1,68
 148 592 148 592 173 599 c 1,69,-1
 173 623 l 1,0,1
261 137 m 0,70,71
 288 151 288 151 302.5 173.5 c 128,-1,72
 317 196 317 196 317 223 c 0,73,74
 317 258 317 258 298 280 c 128,-1,75
 279 302 279 302 258 311 c 1,76,-1
 258 136 l 1,77,78
 260 136 260 136 261 137 c 0,70,71
119 459 m 0,79,80
 119 433 119 433 134.5 419 c 128,-1,81
 150 405 150 405 173 398 c 1,82,-1
 173 527 l 1,83,84
 151 516 151 516 135 499 c 128,-1,85
 119 482 119 482 119 459 c 0,79,80
EndSplineSet
Validated: 1
EndChar

StartChar: percent
Encoding: 37 37 8
Width: 425
GlyphClass: 2
Flags: W
LayerCount: 2
Fore
SplineSet
306 235 m 0,0,1
 326 235 326 235 343.5 225.5 c 128,-1,2
 361 216 361 216 374.5 200 c 128,-1,3
 388 184 388 184 396 162.5 c 128,-1,4
 404 141 404 141 404 117 c 0,5,6
 404 92 404 92 396 70.5 c 128,-1,7
 388 49 388 49 374.5 33 c 128,-1,8
 361 17 361 17 343.5 7.5 c 128,-1,9
 326 -2 326 -2 306 -2 c 0,10,11
 285 -2 285 -2 266.5 7.5 c 128,-1,12
 248 17 248 17 234.5 33 c 128,-1,13
 221 49 221 49 213.5 70.5 c 128,-1,14
 206 92 206 92 206 117 c 0,15,16
 206 141 206 141 213.5 162.5 c 128,-1,17
 221 184 221 184 234.5 200 c 128,-1,18
 248 216 248 216 266.5 225.5 c 128,-1,19
 285 235 285 235 306 235 c 0,0,1
306 159 m 0,20,21
 295 159 295 159 286.5 147 c 128,-1,22
 278 135 278 135 278 117 c 0,23,24
 278 100 278 100 286.5 87 c 128,-1,25
 295 74 295 74 306 74 c 0,26,27
 314 74 314 74 322 87 c 128,-1,28
 330 100 330 100 330 117 c 0,29,30
 330 135 330 135 322 147 c 128,-1,31
 314 159 314 159 306 159 c 0,20,21
119 667 m 0,32,33
 139 667 139 667 157 657.5 c 128,-1,34
 175 648 175 648 188.5 632 c 128,-1,35
 202 616 202 616 209.5 594.5 c 128,-1,36
 217 573 217 573 217 549 c 0,37,38
 217 524 217 524 209.5 502.5 c 128,-1,39
 202 481 202 481 188.5 465 c 128,-1,40
 175 449 175 449 157 439.5 c 128,-1,41
 139 430 139 430 119 430 c 0,42,43
 98 430 98 430 80 439.5 c 128,-1,44
 62 449 62 449 48.5 465 c 128,-1,45
 35 481 35 481 27.5 502.5 c 128,-1,46
 20 524 20 524 20 549 c 0,47,48
 20 573 20 573 27.5 594.5 c 128,-1,49
 35 616 35 616 48.5 632 c 128,-1,50
 62 648 62 648 80 657.5 c 128,-1,51
 98 667 98 667 119 667 c 0,32,33
119 591 m 0,52,53
 109 591 109 591 101 579 c 128,-1,54
 93 567 93 567 93 549 c 0,55,56
 93 532 93 532 101 519 c 128,-1,57
 109 506 109 506 119 506 c 0,58,59
 128 506 128 506 136 519 c 128,-1,60
 144 532 144 532 144 549 c 0,61,62
 144 567 144 567 136 579 c 128,-1,63
 128 591 128 591 119 591 c 0,52,53
93 21 m 0,64,65
 171 167 171 167 248.5 311.5 c 128,-1,66
 326 456 326 456 404 602 c 0,67,68
 409 615 409 615 409 624 c 0,69,70
 409 642 409 642 397 653 c 128,-1,71
 385 664 385 664 370 664 c 0,72,73
 359 664 359 664 348.5 658 c 128,-1,74
 338 652 338 652 330 638 c 0,75,76
 251 492 251 492 173.5 347.5 c 128,-1,77
 96 203 96 203 18 57 c 0,78,79
 17 52 17 52 17 43 c 0,80,81
 17 23 17 23 28 12 c 128,-1,82
 39 1 39 1 55 1 c 0,83,84
 64 1 64 1 74 5.5 c 128,-1,85
 84 10 84 10 93 21 c 0,64,65
EndSplineSet
Validated: 9
EndChar

StartChar: ampersand
Encoding: 38 38 9
Width: 425
GlyphClass: 2
Flags: W
LayerCount: 2
Fore
SplineSet
59 522 m 0,0,1
 59 550 59 550 68.5 576.5 c 128,-1,2
 78 603 78 603 94.5 623 c 128,-1,3
 111 643 111 643 132.5 655 c 128,-1,4
 154 667 154 667 178 667 c 0,5,6
 234 667 234 667 266 632 c 128,-1,7
 298 597 298 597 298 537 c 0,8,9
 298 516 298 516 295 497.5 c 128,-1,10
 292 479 292 479 283.5 460 c 128,-1,11
 275 441 275 441 259 418.5 c 128,-1,12
 243 396 243 396 216 366 c 1,13,14
 225 350 225 350 232.5 337 c 128,-1,15
 240 324 240 324 248.5 310 c 128,-1,16
 257 296 257 296 267 279 c 128,-1,17
 277 262 277 262 292 239 c 1,18,19
 298 300 298 300 298 304 c 2,20,-1
 298 327 l 2,21,22
 298 335 298 335 297 339 c 0,23,24
 302 361 302 361 314.5 370.5 c 128,-1,25
 327 380 327 380 340 380 c 0,26,27
 360 380 360 380 372.5 366.5 c 128,-1,28
 385 353 385 353 385 324 c 0,29,30
 385 301 385 301 383 273.5 c 128,-1,31
 381 246 381 246 377 221 c 0,32,33
 375 209 375 209 370 185.5 c 128,-1,34
 365 162 365 162 356 133 c 1,35,-1
 402 60 l 1,36,-1
 402 61 l 1,37,38
 407 49 407 49 407 39 c 0,39,40
 407 20 407 20 395 9.5 c 128,-1,41
 383 -1 383 -1 366 -1 c 0,42,43
 353 -1 353 -1 334 9 c 1,44,-1
 305 53 l 1,45,46
 275 31 275 31 238.5 18 c 128,-1,47
 202 5 202 5 175 5 c 0,48,49
 141 5 141 5 112.5 17 c 128,-1,50
 84 29 84 29 63 51.5 c 128,-1,51
 42 74 42 74 30.5 105.5 c 128,-1,52
 19 137 19 137 19 176 c 0,53,54
 19 201 19 201 26.5 228.5 c 128,-1,55
 34 256 34 256 47 282 c 0,56,57
 53 294 53 294 68.5 315.5 c 128,-1,58
 84 337 84 337 111 366 c 1,59,60
 94 396 94 396 83.5 417.5 c 128,-1,61
 73 439 73 439 68 453 c 1,62,-1
 68 452 l 1,63,64
 59 483 59 483 59 522 c 0,0,1
176 89 m 0,65,66
 197 89 197 89 224 101 c 1,67,-1
 223 101 l 1,68,69
 229 103 229 103 238 109.5 c 128,-1,70
 247 116 247 116 258 129 c 1,71,72
 234 170 234 170 209.5 208 c 128,-1,73
 185 246 185 246 155 295 c 1,74,75
 132 264 132 264 120 234 c 128,-1,76
 108 204 108 204 108 183 c 0,77,78
 108 141 108 141 125.5 115 c 128,-1,79
 143 89 143 89 176 89 c 0,65,66
147 526 m 0,80,81
 147 515 147 515 153.5 492 c 128,-1,82
 160 469 160 469 171 436 c 1,83,84
 184 458 184 458 190.5 469 c 128,-1,85
 197 480 197 480 199.5 485.5 c 128,-1,86
 202 491 202 491 203 495 c 128,-1,87
 204 499 204 499 207 508 c 0,88,89
 208 515 208 515 209 521.5 c 128,-1,90
 210 528 210 528 210 534 c 0,91,92
 210 557 210 557 202 570.5 c 128,-1,93
 194 584 194 584 179 584 c 0,94,95
 165 584 165 584 156 569 c 128,-1,96
 147 554 147 554 147 526 c 0,80,81
EndSplineSet
Validated: 1
EndChar

StartChar: quotesingle
Encoding: 39 39 10
Width: 425
GlyphClass: 2
Flags: W
LayerCount: 2
Fore
SplineSet
170 625 m 1,0,1
 175 645 175 645 186.5 655.5 c 128,-1,2
 198 666 198 666 212 666 c 0,3,4
 225 666 225 666 236.5 657 c 128,-1,5
 248 648 248 648 254 629 c 1,6,-1
 254 474 l 2,7,8
 252 451 252 451 239.5 439 c 128,-1,9
 227 427 227 427 212 427 c 0,10,11
 198 427 198 427 185.5 437.5 c 128,-1,12
 173 448 173 448 170 470 c 2,13,-1
 170 625 l 1,14,-1
 170 625 l 1,0,1
EndSplineSet
Validated: 5
EndChar

StartChar: parenleft
Encoding: 40 40 11
Width: 425
GlyphClass: 2
Flags: W
LayerCount: 2
Fore
SplineSet
299 592 m 2,0,1
 277 580 277 580 261.5 554 c 128,-1,2
 246 528 246 528 235.5 492.5 c 128,-1,3
 225 457 225 457 220 415.5 c 128,-1,4
 215 374 215 374 215 332 c 0,5,6
 215 264 215 264 228.5 205 c 128,-1,7
 242 146 242 146 268 107 c 0,8,9
 276 95 276 95 284.5 87 c 128,-1,10
 293 79 293 79 304 72 c 1,11,12
 310 63 310 63 314 55 c 128,-1,13
 318 47 318 47 318 39 c 0,14,15
 318 22 318 22 307.5 10 c 128,-1,16
 297 -2 297 -2 280 -2 c 0,17,18
 270 -2 270 -2 258 4 c 1,19,-1
 258 3 l 1,20,21
 225 21 225 21 200 54.5 c 128,-1,22
 175 88 175 88 159 132 c 128,-1,23
 143 176 143 176 135 228 c 128,-1,24
 127 280 127 280 127 336 c 0,25,26
 127 411 127 411 143.5 481 c 128,-1,27
 160 551 160 551 193 602 c 1,28,-1
 192 602 l 1,29,30
 211 629 211 629 233 648 c 128,-1,31
 255 667 255 667 277 667 c 0,32,33
 296 667 296 667 308 656 c 128,-1,34
 320 645 320 645 320 629 c 0,35,36
 320 619 320 619 317 609 c 128,-1,37
 314 599 314 599 303 594 c 2,38,-1
 299 592 l 2,0,1
EndSplineSet
Validated: 1
EndChar

StartChar: parenright
Encoding: 41 41 12
Width: 425
GlyphClass: 2
Flags: W
LayerCount: 2
Fore
SplineSet
144 594 m 2,0,1
 127 610 127 610 127 629 c 0,2,3
 127 645 127 645 139 656 c 128,-1,4
 151 667 151 667 170 667 c 0,5,6
 192 667 192 667 214 648 c 128,-1,7
 236 629 236 629 255 602 c 1,8,-1
 254 602 l 1,9,10
 287 551 287 551 303.5 481 c 128,-1,11
 320 411 320 411 320 336 c 0,12,13
 320 280 320 280 312 228 c 128,-1,14
 304 176 304 176 287.5 132 c 128,-1,15
 271 88 271 88 246.5 54.5 c 128,-1,16
 222 21 222 21 188 3 c 1,17,-1
 189 4 l 1,18,19
 177 -2 177 -2 166 -2 c 0,20,21
 149 -2 149 -2 139 10 c 128,-1,22
 129 22 129 22 129 39 c 0,23,24
 129 47 129 47 133 55 c 128,-1,25
 137 63 137 63 143 72 c 1,26,27
 154 79 154 79 162.5 87 c 128,-1,28
 171 95 171 95 179 107 c 0,29,30
 205 146 205 146 218.5 205 c 128,-1,31
 232 264 232 264 232 332 c 0,32,33
 232 374 232 374 226.5 415.5 c 128,-1,34
 221 457 221 457 210.5 492.5 c 128,-1,35
 200 528 200 528 184 554 c 128,-1,36
 168 580 168 580 146 592 c 1,37,-1
 144 594 l 2,0,1
EndSplineSet
Validated: 1
EndChar

StartChar: asterisk
Encoding: 42 42 13
Width: 425
GlyphClass: 2
Flags: W
LayerCount: 2
Fore
SplineSet
100 458 m 0,0,1
 97 465 97 465 95 471 c 128,-1,2
 93 477 93 477 93 483 c 0,3,4
 93 501 93 501 105 512 c 128,-1,5
 117 523 117 523 132 523 c 0,6,7
 146 523 146 523 157 513.5 c 128,-1,8
 168 504 168 504 178 490 c 128,-1,9
 188 476 188 476 196.5 459.5 c 128,-1,10
 205 443 205 443 213 429 c 1,11,12
 221 443 221 443 229.5 459.5 c 128,-1,13
 238 476 238 476 247.5 490 c 128,-1,14
 257 504 257 504 268.5 513.5 c 128,-1,15
 280 523 280 523 293 523 c 0,16,17
 307 523 307 523 319 512 c 128,-1,18
 331 501 331 501 331 483 c 0,19,20
 331 474 331 474 326 461.5 c 128,-1,21
 321 449 321 449 314 436.5 c 128,-1,22
 307 424 307 424 299 411 c 128,-1,23
 291 398 291 398 285 388 c 1,24,-1
 374 388 l 1,25,26
 392 383 392 383 401 371 c 128,-1,27
 410 359 410 359 410 347 c 0,28,29
 410 333 410 333 400 321 c 128,-1,30
 390 309 390 309 370 305 c 1,31,-1
 285 305 l 1,32,-1
 328 230 l 2,33,34
 331 219 331 219 331 211 c 0,35,36
 331 192 331 192 320 181 c 128,-1,37
 309 170 309 170 293 170 c 0,38,39
 279 170 279 170 267.5 179.5 c 128,-1,40
 256 189 256 189 246.5 203 c 128,-1,41
 237 217 237 217 228.5 233.5 c 128,-1,42
 220 250 220 250 213 264 c 1,43,44
 205 250 205 250 196.5 233.5 c 128,-1,45
 188 217 188 217 178 203 c 128,-1,46
 168 189 168 189 157 179.5 c 128,-1,47
 146 170 146 170 132 170 c 0,48,49
 117 170 117 170 105.5 181.5 c 128,-1,50
 94 193 94 193 94 213 c 0,51,52
 94 222 94 222 99 233.5 c 128,-1,53
 104 245 104 245 111.5 257.5 c 128,-1,54
 119 270 119 270 127 282 c 128,-1,55
 135 294 135 294 141 305 c 1,56,-1
 59 305 l 2,57,58
 36 308 36 308 25.5 320.5 c 128,-1,59
 15 333 15 333 15 347 c 256,60,61
 15 361 15 361 27 374.5 c 128,-1,62
 39 388 39 388 62 388 c 2,63,-1
 140 388 l 1,64,65
 130 405 130 405 120 422.5 c 128,-1,66
 110 440 110 440 100 458 c 0,0,1
EndSplineSet
Validated: 1
EndChar

StartChar: plus
Encoding: 43 43 14
Width: 425
GlyphClass: 2
Flags: W
LayerCount: 2
Fore
SplineSet
59 306 m 1,0,1
 36 309 36 309 25.5 321.5 c 128,-1,2
 15 334 15 334 15 348 c 0,3,4
 15 363 15 363 27 375.5 c 128,-1,5
 39 388 39 388 62 390 c 2,6,-1
 171 390 l 1,7,-1
 171 502 l 2,8,9
 174 525 174 525 186.5 535.5 c 128,-1,10
 199 546 199 546 213 546 c 0,11,12
 228 546 228 546 240.5 534 c 128,-1,13
 253 522 253 522 255 499 c 2,14,-1
 255 390 l 1,15,-1
 374 390 l 1,16,17
 392 384 392 384 401 372.5 c 128,-1,18
 410 361 410 361 410 348 c 0,19,20
 410 334 410 334 400 322.5 c 128,-1,21
 390 311 390 311 370 306 c 1,22,-1
 255 306 l 1,23,-1
 255 187 l 1,24,25
 249 169 249 169 237.5 159.5 c 128,-1,26
 226 150 226 150 213 150 c 0,27,28
 199 150 199 150 187 160.5 c 128,-1,29
 175 171 175 171 171 191 c 1,30,-1
 171 306 l 1,31,-1
 59 306 l 1,32,-1
 59 306 l 1,0,1
EndSplineSet
Validated: 5
EndChar

StartChar: comma
Encoding: 44 44 15
Width: 425
GlyphClass: 2
Flags: W
LayerCount: 2
Fore
SplineSet
199 -55 m 1,0,1
 182 -75 182 -75 161 -75 c 0,2,3
 145 -75 145 -75 134 -63.5 c 128,-1,4
 123 -52 123 -52 123 -32 c 0,5,6
 123 -28 123 -28 125 -18 c 2,7,-1
 182 82 l 2,8,9
 190 96 190 96 201 102.5 c 128,-1,10
 212 109 212 109 223 109 c 0,11,12
 238 109 238 109 249.5 98 c 128,-1,13
 261 87 261 87 261 68 c 0,14,15
 261 57 261 57 257 46 c 0,16,17
 243 20 243 20 228.5 -4.5 c 128,-1,18
 214 -29 214 -29 199 -55 c 1,0,1
EndSplineSet
Validated: 1
EndChar

StartChar: hyphen
Encoding: 45 45 16
Width: 425
GlyphClass: 2
Flags: W
LayerCount: 2
Fore
SplineSet
59 306 m 1,0,1
 36 309 36 309 25.5 321.5 c 128,-1,2
 15 334 15 334 15 348 c 0,3,4
 15 363 15 363 27 375.5 c 128,-1,5
 39 388 39 388 62 390 c 2,6,-1
 374 390 l 1,7,8
 392 384 392 384 401 372.5 c 128,-1,9
 410 361 410 361 410 348 c 0,10,11
 410 334 410 334 400 322.5 c 128,-1,12
 390 311 390 311 370 306 c 1,13,-1
 59 306 l 1,14,-1
 59 306 l 1,0,1
EndSplineSet
Validated: 5
EndChar

StartChar: period
Encoding: 46 46 17
Width: 425
GlyphClass: 2
Flags: W
LayerCount: 2
Fore
SplineSet
157 59 m 0,0,1
 157 84 157 84 174 101.5 c 128,-1,2
 191 119 191 119 216 119 c 256,3,4
 241 119 241 119 258 101.5 c 128,-1,5
 275 84 275 84 275 59 c 0,6,7
 275 35 275 35 258 17.5 c 128,-1,8
 241 0 241 0 216 0 c 256,9,10
 191 0 191 0 174 17.5 c 128,-1,11
 157 35 157 35 157 59 c 0,0,1
EndSplineSet
Validated: 1
EndChar

StartChar: slash
Encoding: 47 47 18
Width: 425
GlyphClass: 2
Flags: W
LayerCount: 2
Fore
SplineSet
93 21 m 0,0,1
 84 10 84 10 74 5.5 c 128,-1,2
 64 1 64 1 55 1 c 0,3,4
 39 1 39 1 28 12 c 128,-1,5
 17 23 17 23 17 43 c 0,6,7
 17 52 17 52 18 57 c 0,8,9
 96 203 96 203 173.5 347.5 c 128,-1,10
 251 492 251 492 330 638 c 0,11,12
 338 652 338 652 348.5 658 c 128,-1,13
 359 664 359 664 370 664 c 0,14,15
 385 664 385 664 397 653 c 128,-1,16
 409 642 409 642 409 624 c 0,17,18
 409 615 409 615 404 602 c 0,19,20
 326 456 326 456 248.5 311.5 c 128,-1,21
 171 167 171 167 93 21 c 0,0,1
EndSplineSet
Validated: 1
EndChar

StartChar: zero
Encoding: 48 48 19
Width: 425
GlyphClass: 2
Flags: W
LayerCount: 2
Fore
SplineSet
407 207 m 2,0,1
 407 161 407 161 395.5 121 c 128,-1,2
 384 81 384 81 360 51 c 128,-1,3
 336 21 336 21 299 4 c 128,-1,4
 262 -13 262 -13 211 -13 c 0,5,6
 185 -13 185 -13 162 -7.5 c 128,-1,7
 139 -2 139 -2 119 8 c 1,8,9
 103 -9 103 -9 84 -9 c 0,10,11
 69 -9 69 -9 57.5 2 c 128,-1,12
 46 13 46 13 46 33 c 0,13,14
 46 41 46 41 48.5 47 c 128,-1,15
 51 53 51 53 56 66 c 1,16,17
 21 123 21 123 19 201 c 2,18,-1
 19 448 l 2,19,20
 19 498 19 498 30.5 540.5 c 128,-1,21
 42 583 42 583 66 613.5 c 128,-1,22
 90 644 90 644 126 661.5 c 128,-1,23
 162 679 162 679 211 679 c 0,24,25
 240 679 240 679 264 673 c 128,-1,26
 288 667 288 667 308 657 c 1,27,28
 323 676 323 676 343 676 c 0,29,30
 358 676 358 676 370 665 c 128,-1,31
 382 654 382 654 382 635 c 0,32,33
 382 626 382 626 379.5 618.5 c 128,-1,34
 377 611 377 611 370 597 c 1,35,36
 388 568 388 568 396.5 530.5 c 128,-1,37
 405 493 405 493 407 451 c 2,38,-1
 407 207 l 2,0,1
213 591 m 0,39,40
 184 591 184 591 163.5 578 c 128,-1,41
 143 565 143 565 130.5 542.5 c 128,-1,42
 118 520 118 520 112 490.5 c 128,-1,43
 106 461 106 461 106 429 c 2,44,-1
 106 225 l 2,45,46
 106 207 106 207 109 191 c 1,47,48
 128 236 128 236 149.5 287 c 128,-1,49
 171 338 171 338 192 388.5 c 128,-1,50
 213 439 213 439 233 486.5 c 128,-1,51
 253 534 253 534 269 571 c 1,52,53
 246 591 246 591 213 591 c 0,39,40
320 450 m 1,54,-1
 317 470 l 1,55,-1
 157 92 l 1,56,57
 168 84 168 84 182 79 c 128,-1,58
 196 74 196 74 213 74 c 0,59,60
 241 74 241 74 261 88 c 128,-1,61
 281 102 281 102 294 124.5 c 128,-1,62
 307 147 307 147 313.5 174.5 c 128,-1,63
 320 202 320 202 320 229 c 2,64,-1
 320 450 l 1,54,-1
EndSplineSet
Validated: 1
EndChar

StartChar: one
Encoding: 49 49 20
Width: 425
GlyphClass: 2
Flags: W
LayerCount: 2
Fore
SplineSet
79 -2 m 5,0,1
 55 2 55 2 43.5 14.5 c 132,-1,2
 32 27 32 27 32 42 c 4,3,4
 32 58 32 58 44 70 c 4,5,6
 58 84 58 84 82 84 c 6,7,-1
 185 84 l 1,8,-1
 185 532 l 1,9,10
 164 510 164 510 149.5 503 c 128,-1,11
 135 496 135 496 126 496 c 0,12,13
 109 496 109 496 98 506.5 c 128,-1,14
 87 517 87 517 87 534 c 0,15,16
 87 541 87 541 89.5 550 c 128,-1,17
 92 559 92 559 98 567 c 2,18,-1
 101 571 l 2,19,20
 115 586 115 586 132.5 605 c 128,-1,21
 150 624 150 624 167.5 640 c 128,-1,22
 185 656 185 656 202 667 c 128,-1,23
 219 678 219 678 231 678 c 0,24,25
 259 678 259 678 271 641 c 1,26,-1
 271 84 l 1,27,-1
 387 84 l 1,28,29
 407 79 407 79 415.5 67 c 128,-1,30
 424 55 424 55 424 41 c 256,31,32
 424 27 424 27 412.5 15 c 128,-1,33
 401 3 401 3 381 -2 c 1,34,-1
 79 -2 l 5,0,1
EndSplineSet
Validated: 1
EndChar

StartChar: two
Encoding: 50 50 21
Width: 425
GlyphClass: 2
Flags: W
LayerCount: 2
Fore
SplineSet
109 524 m 2,0,1
 101.571428571 512.857142857 101.571428571 512.857142857 88.5 508.5 c 0,2,3
 79 505 79 505 68 505 c 0,4,5
 50 505 50 505 38 517.5 c 128,-1,6
 26 530 26 530 26 551 c 0,7,8
 26 566 26 566 34.5 582 c 128,-1,9
 43 598 43 598 56 612 c 128,-1,10
 69 626 69 626 84.5 638 c 128,-1,11
 100 650 100 650 114 657 c 0,12,13
 159 678 159 678 206 678 c 0,14,15
 245 678 245 678 281 664.5 c 128,-1,16
 317 651 317 651 344.5 627 c 128,-1,17
 372 603 372 603 389 569.5 c 128,-1,18
 406 536 406 536 406 497 c 0,19,20
 406 473 406 473 398.5 451 c 128,-1,21
 391 429 391 429 379 408 c 128,-1,22
 367 387 367 387 352.5 366.5 c 128,-1,23
 338 346 338 346 325 327 c 0,24,25
 320 319 320 319 307 301 c 128,-1,26
 294 283 294 283 277 259 c 128,-1,27
 260 235 260 235 241 208.5 c 128,-1,28
 222 182 222 182 205 157.5 c 128,-1,29
 188 133 188 133 174 113.5 c 128,-1,30
 160 94 160 94 154 84 c 1,31,-1
 364 84 l 6,32,33
 385 84 385 84 395 69.5 c 132,-1,34
 405 55 405 55 405 41 c 4,35,36
 405 28 405 28 392 13 c 132,-1,37
 379 -2 379 -2 356 -2 c 6,38,-1
 70 -2 l 2,39,40
 49 -2 49 -2 32 11.5 c 0,41,42
 19 22 19 22 19 37 c 0,43,44
 19 50 19 50 32 70 c 0,45,46
 51 98 51 98 66 120 c 128,-1,47
 81 142 81 142 95.5 163 c 128,-1,48
 110 184 110 184 127 208 c 128,-1,49
 144 232 144 232 167 265 c 0,50,51
 218 338 218 338 222 343 c 0,52,53
 272 404 272 404 299 451 c 0,54,55
 303 458 303 458 305 462.5 c 128,-1,56
 307 467 307 467 308 472 c 128,-1,57
 309 477 309 477 309.5 483 c 128,-1,58
 310 489 310 489 310 499 c 0,59,60
 310 520 310 520 301 537 c 128,-1,61
 292 554 292 554 277.5 567 c 128,-1,62
 263 580 263 580 245 587 c 128,-1,63
 227 594 227 594 209 594 c 0,64,65
 178 594 178 594 152 575.5 c 128,-1,66
 126 557 126 557 111 527 c 1,67,-1
 109 524 l 2,0,1
EndSplineSet
Validated: 524289
EndChar

StartChar: three
Encoding: 51 51 22
Width: 425
GlyphClass: 2
Flags: W
LayerCount: 2
Fore
SplineSet
19 150 m 2,0,1
 19 173 19 173 33 185.5 c 128,-1,2
 47 198 47 198 64 198 c 0,3,4
 78 198 78 198 91.5 188 c 128,-1,5
 105 178 105 178 112 158 c 1,6,-1
 111 159 l 1,7,8
 118 122 118 122 141.5 98 c 128,-1,9
 165 74 165 74 204 74 c 0,10,11
 234 74 234 74 254.5 84 c 128,-1,12
 275 94 275 94 288 110 c 128,-1,13
 301 126 301 126 307 146 c 128,-1,14
 313 166 313 166 313 185 c 0,15,16
 313 220 313 220 303 244 c 128,-1,17
 293 268 293 268 275.5 283 c 128,-1,18
 258 298 258 298 234.5 305 c 128,-1,19
 211 312 211 312 184 314 c 1,20,-1
 185 314 l 1,21,22
 159 318 159 318 146 330 c 128,-1,23
 133 342 133 342 133 356 c 0,24,25
 133 362 133 362 136 369.5 c 128,-1,26
 139 377 139 377 145.5 383.5 c 128,-1,27
 152 390 152 390 161 395 c 128,-1,28
 170 400 170 400 182 400 c 0,29,30
 204 403 204 403 225.5 408 c 128,-1,31
 247 413 247 413 263 423.5 c 128,-1,32
 279 434 279 434 289 452 c 128,-1,33
 299 470 299 470 299 499 c 0,34,35
 299 514 299 514 291 531 c 128,-1,36
 283 548 283 548 269.5 561.5 c 128,-1,37
 256 575 256 575 239 584 c 128,-1,38
 222 593 222 593 204 593 c 0,39,40
 187 593 187 593 173 586 c 128,-1,41
 159 579 159 579 147.5 568.5 c 128,-1,42
 136 558 136 558 127.5 545.5 c 128,-1,43
 119 533 119 533 114 521 c 0,44,45
 108 501 108 501 94.5 492.5 c 128,-1,46
 81 484 81 484 67 484 c 0,47,48
 49 484 49 484 35.5 495.5 c 128,-1,49
 22 507 22 507 22 530 c 0,50,51
 22 532 22 532 22.5 536 c 128,-1,52
 23 540 23 540 24 545 c 1,53,-1
 24 544 l 1,54,55
 45 610 45 610 94 644 c 128,-1,56
 143 678 143 678 204 678 c 0,57,58
 242 678 242 678 276.5 662.5 c 128,-1,59
 311 647 311 647 337 621.5 c 128,-1,60
 363 596 363 596 378.5 563 c 128,-1,61
 394 530 394 530 394 494 c 0,62,63
 394 460 394 460 377.5 424.5 c 128,-1,64
 361 389 361 389 318 360 c 1,65,66
 363 326 363 326 385 281 c 128,-1,67
 407 236 407 236 407 186 c 0,68,69
 407 148 407 148 393.5 112.5 c 128,-1,70
 380 77 380 77 354.5 49.5 c 128,-1,71
 329 22 329 22 291.5 5.5 c 128,-1,72
 254 -11 254 -11 207 -11 c 0,73,74
 174 -11 174 -11 142.5 -1.5 c 128,-1,75
 111 8 111 8 86 27 c 128,-1,76
 61 46 61 46 43.5 74 c 128,-1,77
 26 102 26 102 20 139 c 2,78,-1
 19 150 l 2,0,1
EndSplineSet
Validated: 1
EndChar

StartChar: four
Encoding: 52 52 23
Width: 425
GlyphClass: 2
Flags: W
LayerCount: 2
Fore
SplineSet
59 186 m 2,0,1
 42 186 42 186 29 197.5 c 128,-1,2
 16 209 16 209 16 226 c 0,3,4
 16 240 16 240 25 255 c 0,5,6
 91 352 91 352 155 447 c 128,-1,7
 219 542 219 542 284 639 c 1,8,9
 304 654 304 654 318 654 c 0,10,11
 347 654 347 654 358 617 c 1,12,-1
 358 270 l 1,13,-1
 374 270 l 1,14,15
 392 264 392 264 401 252.5 c 128,-1,16
 410 241 410 241 410 228 c 0,17,18
 410 214 410 214 400 202.5 c 128,-1,19
 390 191 390 191 370 186 c 1,20,-1
 358 186 l 1,21,-1
 358 47 l 2,22,23
 356 24 356 24 344 12 c 128,-1,24
 332 0 332 0 316 0 c 0,25,26
 302 0 302 0 289.5 10.5 c 128,-1,27
 277 21 277 21 274 43 c 2,28,-1
 274 186 l 1,29,-1
 59 186 l 2,0,1
274 476 m 1,30,31
 239 424 239 424 204.5 372.5 c 128,-1,32
 170 321 170 321 135 270 c 1,33,-1
 274 270 l 1,34,-1
 274 476 l 1,35,-1
 274 476 l 1,30,31
EndSplineSet
Validated: 5
EndChar

StartChar: five
Encoding: 53 53 24
Width: 425
GlyphClass: 2
Flags: W
LayerCount: 2
Fore
SplineSet
356 666 m 1,0,1
 376 660 376 660 384.5 648 c 128,-1,2
 393 636 393 636 393 622 c 0,3,4
 393 609 393 609 381.5 597 c 128,-1,5
 370 585 370 585 350 580 c 1,6,-1
 106 580 l 1,7,-1
 106 411 l 1,8,9
 127 418 127 418 149 420.5 c 128,-1,10
 171 423 171 423 188 423 c 0,11,12
 230 423 230 423 269 406 c 128,-1,13
 308 389 308 389 339 359.5 c 128,-1,14
 370 330 370 330 388.5 291 c 128,-1,15
 407 252 407 252 407 208 c 0,16,17
 407 162 407 162 389 121.5 c 128,-1,18
 371 81 371 81 340 51 c 128,-1,19
 309 21 309 21 268 4 c 128,-1,20
 227 -13 227 -13 182 -13 c 0,21,22
 165 -13 165 -13 146 -9.5 c 128,-1,23
 127 -6 127 -6 108 0 c 128,-1,24
 89 6 89 6 72.5 14 c 128,-1,25
 56 22 56 22 46 32 c 1,26,-1
 47 32 l 1,27,-1
 39 40 l 2,28,29
 20 59 20 59 20 78 c 0,30,31
 20 95 20 95 31 106.5 c 128,-1,32
 42 118 42 118 59 118 c 0,33,34
 74 118 74 118 94 105 c 0,35,36
 121 88 121 88 141 80.5 c 128,-1,37
 161 73 161 73 187 73 c 256,38,39
 213 73 213 73 237 83 c 128,-1,40
 261 93 261 93 279.5 111 c 128,-1,41
 298 129 298 129 309 153 c 128,-1,42
 320 177 320 177 320 205 c 256,43,44
 320 233 320 233 308.5 257.5 c 128,-1,45
 297 282 297 282 278.5 300 c 128,-1,46
 260 318 260 318 235.5 328 c 128,-1,47
 211 338 211 338 185 338 c 0,48,49
 166 338 166 338 148 333.5 c 128,-1,50
 130 329 130 329 114 323 c 128,-1,51
 98 317 98 317 84 312.5 c 128,-1,52
 70 308 70 308 59 308 c 0,53,54
 43 308 43 308 32 318 c 128,-1,55
 21 328 21 328 19 350 c 2,56,-1
 19 623 l 1,57,58
 24 644 24 644 35.5 655 c 128,-1,59
 47 666 47 666 70 666 c 2,60,-1
 356 666 l 1,0,1
EndSplineSet
Validated: 1
EndChar

StartChar: six
Encoding: 54 54 25
Width: 425
GlyphClass: 2
Flags: W
LayerCount: 2
Fore
SplineSet
342 580 m 2,0,1
 334 581 334 581 312 581 c 128,-1,2
 290 581 290 581 258 581 c 0,3,4
 238 581 238 581 211 573 c 128,-1,5
 184 565 184 565 160 550 c 128,-1,6
 136 535 136 535 119.5 514 c 128,-1,7
 103 493 103 493 103 467 c 2,8,-1
 103 401 l 1,9,10
 115 407 115 407 130 412.5 c 128,-1,11
 145 418 145 418 160 423 c 128,-1,12
 175 428 175 428 189 431 c 128,-1,13
 203 434 203 434 213 434 c 0,14,15
 251 434 251 434 290.5 421 c 128,-1,16
 330 408 330 408 354 383 c 1,17,-1
 354 384 l 1,18,19
 378 358 378 358 392.5 326 c 128,-1,20
 407 294 407 294 407 258 c 2,21,-1
 407 164 l 2,22,23
 407 126 407 126 392.5 93.5 c 128,-1,24
 378 61 378 61 352 37.5 c 128,-1,25
 326 14 326 14 290.5 0.5 c 128,-1,26
 255 -13 255 -13 213 -13 c 256,27,28
 171 -13 171 -13 135.5 0.5 c 128,-1,29
 100 14 100 14 74 37.5 c 128,-1,30
 48 61 48 61 33 93.5 c 128,-1,31
 18 126 18 126 18 164 c 2,32,-1
 18 461 l 2,33,34
 18 497 18 497 32 532 c 128,-1,35
 46 567 46 567 71 592 c 0,36,37
 83 604 83 604 101 617 c 128,-1,38
 119 630 119 630 142 640.5 c 128,-1,39
 165 651 165 651 194 658 c 128,-1,40
 223 665 223 665 258 665 c 2,41,-1
 286 665 l 2,42,43
 341 665 341 665 366 659 c 128,-1,44
 391 653 391 653 391 622 c 0,45,46
 391 603 391 603 378 590.5 c 128,-1,47
 365 578 365 578 350 578 c 0,48,49
 347 578 347 578 345 579 c 2,50,-1
 342 580 l 2,0,1
103 164 m 2,51,52
 103 143 103 143 112.5 126 c 128,-1,53
 122 109 122 109 138 97 c 128,-1,54
 154 85 154 85 173.5 78 c 128,-1,55
 193 71 193 71 213 71 c 0,56,57
 232 71 232 71 251.5 78 c 128,-1,58
 271 85 271 85 287 98 c 128,-1,59
 303 111 303 111 313 127.5 c 128,-1,60
 323 144 323 144 323 164 c 2,61,-1
 323 258 l 2,62,63
 323 276 323 276 312.5 293 c 128,-1,64
 302 310 302 310 286 322.5 c 128,-1,65
 270 335 270 335 250.5 342.5 c 128,-1,66
 231 350 231 350 213 350 c 0,67,68
 193 350 193 350 173.5 343 c 128,-1,69
 154 336 154 336 138.5 324 c 128,-1,70
 123 312 123 312 113 295 c 128,-1,71
 103 278 103 278 103 258 c 2,72,-1
 103 164 l 2,51,52
EndSplineSet
Validated: 1
EndChar

StartChar: seven
Encoding: 55 55 26
Width: 425
GlyphClass: 2
Flags: W
LayerCount: 2
Fore
SplineSet
59 581 m 1,0,1
 36 584 36 584 25.5 596.5 c 128,-1,2
 15 609 15 609 15 623 c 0,3,4
 15 638 15 638 27 650.5 c 128,-1,5
 39 663 39 663 62 665 c 2,6,-1
 374 665 l 1,7,8
 394 659 394 659 402 647 c 128,-1,9
 410 635 410 635 410 615 c 1,10,11
 354 469 354 469 299.5 324 c 128,-1,12
 245 179 245 179 190 33 c 0,13,14
 183 16 183 16 171.5 8 c 128,-1,15
 160 0 160 0 148 0 c 0,16,17
 133 0 133 0 121 11.5 c 128,-1,18
 109 23 109 23 109 43 c 0,19,20
 109 52 109 52 110 57 c 0,21,22
 160 189 160 189 209 319.5 c 128,-1,23
 258 450 258 450 308 581 c 1,24,-1
 59 581 l 1,25,-1
 59 581 l 1,0,1
EndSplineSet
Validated: 5
EndChar

StartChar: eight
Encoding: 56 56 27
Width: 425
GlyphClass: 2
Flags: W
LayerCount: 2
Fore
SplineSet
210 -13 m 2,0,1
 166 -13 166 -13 130.5 2.5 c 128,-1,2
 95 18 95 18 70.5 44 c 128,-1,3
 46 70 46 70 32.5 105.5 c 128,-1,4
 19 141 19 141 19 181 c 0,5,6
 19 231 19 231 39 270.5 c 128,-1,7
 59 310 59 310 99 345 c 1,8,9
 38 407 38 407 38 489 c 0,10,11
 38 528 38 528 50.5 561.5 c 128,-1,12
 63 595 63 595 86.5 619 c 128,-1,13
 110 643 110 643 142.5 656.5 c 128,-1,14
 175 670 175 670 214 670 c 0,15,16
 252 670 252 670 284 656.5 c 128,-1,17
 316 643 316 643 339 619 c 128,-1,18
 362 595 362 595 375 561.5 c 128,-1,19
 388 528 388 528 388 489 c 0,20,21
 388 446 388 446 371 408 c 128,-1,22
 354 370 354 370 325 345 c 1,23,24
 407 279 407 279 407 181 c 0,25,26
 407 142 407 142 393.5 107 c 128,-1,27
 380 72 380 72 355.5 45 c 128,-1,28
 331 18 331 18 295.5 2.5 c 128,-1,29
 260 -13 260 -13 217 -13 c 2,30,-1
 210 -13 l 2,0,1
214 384 m 0,31,32
 258 385 258 385 277 414 c 128,-1,33
 296 443 296 443 296 485 c 0,34,35
 296 503 296 503 291 521 c 128,-1,36
 286 539 286 539 275.5 553.5 c 128,-1,37
 265 568 265 568 250 576.5 c 128,-1,38
 235 585 235 585 214 585 c 0,39,40
 192 585 192 585 176 576.5 c 128,-1,41
 160 568 160 568 149.5 553.5 c 128,-1,42
 139 539 139 539 133.5 521 c 128,-1,43
 128 503 128 503 128 485 c 0,44,45
 128 446 128 446 149.5 416 c 128,-1,46
 171 386 171 386 214 384 c 0,31,32
214 298 m 0,47,48
 166 298 166 298 138 267 c 128,-1,49
 110 236 110 236 110 185 c 0,50,51
 110 162 110 162 116.5 141.5 c 128,-1,52
 123 121 123 121 136 105 c 128,-1,53
 149 89 149 89 168.5 80 c 128,-1,54
 188 71 188 71 214 71 c 0,55,56
 239 71 239 71 258 80.5 c 128,-1,57
 277 90 277 90 289.5 106 c 128,-1,58
 302 122 302 122 308.5 142.5 c 128,-1,59
 315 163 315 163 315 185 c 0,60,61
 315 230 315 230 289.5 263 c 128,-1,62
 264 296 264 296 214 298 c 0,47,48
EndSplineSet
Validated: 1
EndChar

StartChar: nine
Encoding: 57 57 28
Width: 425
GlyphClass: 2
Flags: W
LayerCount: 2
Fore
SplineSet
71 326 m 1,0,1
 46 351 46 351 32.5 385.5 c 128,-1,2
 19 420 19 420 19 465 c 0,3,4
 19 512 19 512 32.5 550 c 128,-1,5
 46 588 46 588 71.5 615 c 128,-1,6
 97 642 97 642 132.5 657 c 128,-1,7
 168 672 168 672 212 672 c 0,8,9
 255 672 255 672 291 657 c 128,-1,10
 327 642 327 642 353 615.5 c 128,-1,11
 379 589 379 589 393 552 c 128,-1,12
 407 515 407 515 407 470 c 2,13,-1
 407 444 l 2,14,15
 407 344 407 344 387.5 266.5 c 128,-1,16
 368 189 368 189 332 133 c 128,-1,17
 296 77 296 77 244 42 c 128,-1,18
 192 7 192 7 127 -6 c 0,19,20
 122 -8 122 -8 117 -8 c 128,-1,21
 112 -8 112 -8 108 -8 c 0,22,23
 91 -8 91 -8 79.5 4.5 c 128,-1,24
 68 17 68 17 68 33 c 0,25,26
 68 45 68 45 77 57.5 c 128,-1,27
 86 70 86 70 103 75 c 0,28,29
 169 95 169 95 219.5 147 c 128,-1,30
 270 199 270 199 297 283 c 1,31,32
 272 274 272 274 252 271 c 128,-1,33
 232 268 232 268 212 268 c 0,34,35
 123 268 123 268 71 325 c 1,36,-1
 71 326 l 1,0,1
109 469 m 0,37,38
 109 446 109 446 117 425 c 128,-1,39
 125 404 125 404 139.5 388 c 128,-1,40
 154 372 154 372 173 362.5 c 128,-1,41
 192 353 192 353 214 353 c 256,42,43
 236 353 236 353 255 359.5 c 128,-1,44
 274 366 274 366 288.5 380 c 128,-1,45
 303 394 303 394 311.5 416 c 128,-1,46
 320 438 320 438 320 469 c 0,47,48
 320 520 320 520 289 552.5 c 128,-1,49
 258 585 258 585 214 585 c 256,50,51
 170 585 170 585 139.5 552.5 c 128,-1,52
 109 520 109 520 109 469 c 0,37,38
EndSplineSet
Validated: 1
EndChar

StartChar: colon
Encoding: 58 58 29
Width: 425
GlyphClass: 2
Flags: W
LayerCount: 2
Fore
SplineSet
147 435 m 0,0,1
 147 459 147 459 164.5 476.5 c 128,-1,2
 182 494 182 494 207 494 c 0,3,4
 231 494 231 494 248.5 476.5 c 128,-1,5
 266 459 266 459 266 435 c 0,6,7
 266 410 266 410 248.5 392.5 c 128,-1,8
 231 375 231 375 207 375 c 0,9,10
 182 375 182 375 164.5 392.5 c 128,-1,11
 147 410 147 410 147 435 c 0,0,1
147 66 m 256,12,13
 147 91 147 91 164.5 108 c 128,-1,14
 182 125 182 125 207 125 c 0,15,16
 231 125 231 125 248.5 108 c 128,-1,17
 266 91 266 91 266 66 c 256,18,19
 266 41 266 41 248.5 24 c 128,-1,20
 231 7 231 7 207 7 c 0,21,22
 182 7 182 7 164.5 24 c 128,-1,23
 147 41 147 41 147 66 c 256,12,13
EndSplineSet
Validated: 1
EndChar

StartChar: semicolon
Encoding: 59 59 30
Width: 425
GlyphClass: 2
Flags: W
LayerCount: 2
Fore
SplineSet
147 435 m 0,0,1
 147 459 147 459 164.5 476.5 c 128,-1,2
 182 494 182 494 207 494 c 0,3,4
 231 494 231 494 248.5 476.5 c 128,-1,5
 266 459 266 459 266 435 c 0,6,7
 266 410 266 410 248.5 392.5 c 128,-1,8
 231 375 231 375 207 375 c 0,9,10
 182 375 182 375 164.5 392.5 c 128,-1,11
 147 410 147 410 147 435 c 0,0,1
199 -55 m 1,12,13
 182 -75 182 -75 161 -75 c 0,14,15
 145 -75 145 -75 134 -63.5 c 128,-1,16
 123 -52 123 -52 123 -32 c 0,17,18
 123 -28 123 -28 125 -18 c 2,19,-1
 182 82 l 2,20,21
 190 96 190 96 201 102.5 c 128,-1,22
 212 109 212 109 223 109 c 0,23,24
 238 109 238 109 249.5 98 c 128,-1,25
 261 87 261 87 261 68 c 0,26,27
 261 57 261 57 257 46 c 0,28,29
 243 20 243 20 228.5 -4.5 c 128,-1,30
 214 -29 214 -29 199 -55 c 1,12,13
EndSplineSet
Validated: 1
EndChar

StartChar: less
Encoding: 60 60 31
Width: 425
GlyphClass: 2
Flags: W
LayerCount: 2
Fore
SplineSet
336 541 m 0,0,1
 349 546 349 546 358 546 c 0,2,3
 376 546 376 546 387 535 c 128,-1,4
 398 524 398 524 398 507 c 0,5,6
 398 489 398 489 385 473 c 1,7,-1
 148 331 l 1,8,9
 205 296 205 296 261.5 261.5 c 128,-1,10
 318 227 318 227 375 192 c 0,11,12
 399 175 399 175 399 152 c 0,13,14
 399 137 399 137 388 125.5 c 128,-1,15
 377 114 377 114 359 114 c 0,16,17
 346 114 346 114 333 121 c 0,18,19
 260 166 260 166 188.5 209.5 c 128,-1,20
 117 253 117 253 44 297 c 1,21,22
 27 314 27 314 27 332 c 0,23,24
 27 352 27 352 47 367 c 0,25,26
 120 412 120 412 191.5 454.5 c 128,-1,27
 263 497 263 497 336 541 c 0,0,1
EndSplineSet
Validated: 1
EndChar

StartChar: equal
Encoding: 61 61 32
Width: 425
GlyphClass: 2
Flags: W
LayerCount: 2
Fore
SplineSet
59 180 m 1,0,1
 36 183 36 183 25.5 196 c 128,-1,2
 15 209 15 209 15 223 c 0,3,4
 15 239 15 239 27 251.5 c 128,-1,5
 39 264 39 264 62 264 c 2,6,-1
 374 264 l 1,7,8
 393 259 393 259 402 247 c 128,-1,9
 411 235 411 235 411 222 c 0,10,11
 411 208 411 208 400.5 196.5 c 128,-1,12
 390 185 390 185 370 180 c 1,13,-1
 59 180 l 1,14,-1
 59 180 l 1,0,1
59 372 m 1,15,16
 36 375 36 375 25.5 388 c 128,-1,17
 15 401 15 401 15 415 c 0,18,19
 15 431 15 431 27 443.5 c 128,-1,20
 39 456 39 456 62 456 c 2,21,-1
 374 456 l 1,22,23
 393 451 393 451 402 439 c 128,-1,24
 411 427 411 427 411 414 c 0,25,26
 411 400 411 400 400.5 388.5 c 128,-1,27
 390 377 390 377 370 372 c 1,28,-1
 59 372 l 1,29,-1
 59 372 l 1,15,16
EndSplineSet
Validated: 5
EndChar

StartChar: greater
Encoding: 62 62 33
Width: 425
GlyphClass: 2
Flags: W
LayerCount: 2
Fore
SplineSet
90 541 m 0,0,1
 163 497 163 497 235 454.5 c 128,-1,2
 307 412 307 412 379 367 c 0,3,4
 399 352 399 352 399 332 c 0,5,6
 399 314 399 314 382 297 c 1,7,8
 310 253 310 253 238 209.5 c 128,-1,9
 166 166 166 166 93 121 c 0,10,11
 80 114 80 114 67 114 c 0,12,13
 50 114 50 114 39 125.5 c 128,-1,14
 28 137 28 137 28 153 c 0,15,16
 28 163 28 163 33.5 173 c 128,-1,17
 39 183 39 183 51 191 c 0,18,19
 108 227 108 227 164.5 261.5 c 128,-1,20
 221 296 221 296 278 331 c 1,21,-1
 42 473 l 1,22,23
 28 490 28 490 28 508 c 0,24,25
 28 525 28 525 39 535.5 c 128,-1,26
 50 546 50 546 67 546 c 0,27,28
 77 546 77 546 90 541 c 0,0,1
EndSplineSet
Validated: 1
EndChar

StartChar: question
Encoding: 63 63 34
Width: 425
GlyphClass: 2
Flags: W
LayerCount: 2
Fore
SplineSet
217 582 m 0,0,1
 184 582 184 582 168 563.5 c 128,-1,2
 152 545 152 545 149 504 c 0,3,4
 144 487 144 487 131.5 476.5 c 128,-1,5
 119 466 119 466 104 466 c 256,6,7
 89 466 89 466 76 476.5 c 128,-1,8
 63 487 63 487 59 505 c 1,9,10
 61 541 61 541 71.5 570.5 c 128,-1,11
 82 600 82 600 105 622 c 0,12,13
 125 644 125 644 153.5 655 c 128,-1,14
 182 666 182 666 217 666 c 0,15,16
 286 666 286 666 330.5 625 c 128,-1,17
 375 584 375 584 375 506 c 0,18,19
 375 479 375 479 371 459 c 128,-1,20
 367 439 367 439 357 421.5 c 128,-1,21
 347 404 347 404 330.5 386 c 128,-1,22
 314 368 314 368 289 345 c 0,23,24
 280 339 280 339 274.5 335 c 128,-1,25
 269 331 269 331 266 323.5 c 128,-1,26
 263 316 263 316 262 303 c 128,-1,27
 261 290 261 290 261 267 c 2,28,-1
 261 232 l 1,29,30
 256 216 256 216 244 206 c 128,-1,31
 232 196 232 196 218 196 c 256,32,33
 204 196 204 196 191 205.5 c 128,-1,34
 178 215 178 215 174 232 c 1,35,-1
 174 267 l 2,36,37
 174 298 174 298 175.5 318 c 128,-1,38
 177 338 177 338 183.5 353 c 128,-1,39
 190 368 190 368 202.5 381 c 128,-1,40
 215 394 215 394 237 412 c 0,41,42
 251 425 251 425 260.5 435.5 c 128,-1,43
 270 446 270 446 276 456 c 128,-1,44
 282 466 282 466 284.5 477.5 c 128,-1,45
 287 489 287 489 287 506 c 0,46,47
 287 582 287 582 217 582 c 0,0,1
160 56 m 0,48,49
 160 81 160 81 176.5 97.5 c 128,-1,50
 193 114 193 114 218 114 c 256,51,52
 243 114 243 114 259.5 97.5 c 128,-1,53
 276 81 276 81 276 56 c 0,54,55
 276 32 276 32 259.5 15 c 128,-1,56
 243 -2 243 -2 218 -2 c 256,57,58
 193 -2 193 -2 176.5 15 c 128,-1,59
 160 32 160 32 160 56 c 0,48,49
EndSplineSet
Validated: 1
EndChar

StartChar: at
Encoding: 64 64 35
Width: 425
GlyphClass: 2
Flags: W
LayerCount: 2
Fore
SplineSet
407 154 m 2,0,1
 407 137 407 137 395 128 c 128,-1,2
 383 119 383 119 367 119 c 0,3,4
 347 119 347 119 336.5 136.5 c 128,-1,5
 326 154 326 154 319 192 c 1,6,7
 280 162 280 162 255 162 c 0,8,9
 200 162 200 162 170.5 198 c 128,-1,10
 141 234 141 234 141 318 c 0,11,12
 141 389 141 389 172.5 432.5 c 128,-1,13
 204 476 204 476 255 476 c 0,14,15
 259 476 259 476 269.5 474 c 128,-1,16
 280 472 280 472 293 470 c 1,17,18
 283 525 283 525 261.5 550 c 128,-1,19
 240 575 240 575 205 575 c 0,20,21
 155 575 155 575 135 516.5 c 128,-1,22
 115 458 115 458 115 325 c 0,23,24
 115 202 115 202 135 149.5 c 128,-1,25
 155 97 155 97 197 97 c 0,26,27
 208 97 208 97 220.5 104.5 c 128,-1,28
 233 112 233 112 244 112 c 0,29,30
 261 112 261 112 275 99.5 c 128,-1,31
 289 87 289 87 289 70 c 0,32,33
 289 57 289 57 279.5 46.5 c 128,-1,34
 270 36 270 36 256 29 c 128,-1,35
 242 22 242 22 224.5 18 c 128,-1,36
 207 14 207 14 191 14 c 0,37,38
 149 14 149 14 119.5 32 c 128,-1,39
 90 50 90 50 71.5 89 c 128,-1,40
 53 128 53 128 44 188.5 c 128,-1,41
 35 249 35 249 35 334 c 0,42,43
 35 421 35 421 45 481.5 c 128,-1,44
 55 542 55 542 76 580.5 c 128,-1,45
 97 619 97 619 129.5 636.5 c 128,-1,46
 162 654 162 654 207 654 c 0,47,48
 302 654 302 654 341.5 585.5 c 128,-1,49
 381 517 381 517 381 375 c 2,50,-1
 381 305 l 2,51,52
 381 293 381 293 382 280 c 128,-1,53
 383 267 383 267 386 251 c 128,-1,54
 389 235 389 235 394 214 c 128,-1,55
 399 193 399 193 407 166 c 1,56,-1
 407 154 l 2,0,1
264 394 m 0,57,58
 246 394 246 394 234 374 c 128,-1,59
 222 354 222 354 222 318 c 0,60,61
 222 277 222 277 228.5 260 c 128,-1,62
 235 243 235 243 252 243 c 0,63,64
 281 243 281 243 290.5 271 c 128,-1,65
 300 299 300 299 302 363 c 1,66,67
 293 381 293 381 285 386.5 c 128,-1,68
 277 392 277 392 264 394 c 0,57,58
EndSplineSet
Validated: 1
EndChar

StartChar: A
Encoding: 65 65 36
Width: 425
GlyphClass: 2
Flags: W
LayerCount: 2
Fore
SplineSet
174 638 m 1,0,1
 190 665 190 665 214 665 c 0,2,3
 226 665 226 665 237 656 c 128,-1,4
 248 647 248 647 253 629 c 0,5,6
 266 584 266 584 279 535.5 c 128,-1,7
 292 487 292 487 309.5 421 c 128,-1,8
 327 355 327 355 351 265 c 128,-1,9
 375 175 375 175 410 47 c 1,10,11
 409 24 409 24 397.5 12 c 128,-1,12
 386 0 386 0 370 0 c 0,13,14
 359 0 359 0 347.5 7 c 128,-1,15
 336 14 336 14 328 30 c 0,16,17
 318 68 318 68 308 107.5 c 128,-1,18
 298 147 298 147 287 186 c 1,19,-1
 138 186 l 1,20,-1
 98 33 l 2,21,22
 91 16 91 16 79.5 8 c 128,-1,23
 68 0 68 0 56 0 c 0,24,25
 41 0 41 0 29 11.5 c 128,-1,26
 17 23 17 23 17 43 c 0,27,28
 17 52 17 52 18 57 c 2,29,-1
 174 638 l 1,0,1
213 462 m 1,30,31
 199 413 199 413 187 365.5 c 128,-1,32
 175 318 175 318 161 270 c 1,33,-1
 264 270 l 1,34,35
 251 318 251 318 238.5 365.5 c 128,-1,36
 226 413 226 413 213 462 c 1,30,31
EndSplineSet
Validated: 1
EndChar

StartChar: B
Encoding: 66 66 37
Width: 425
GlyphClass: 2
Flags: W
LayerCount: 2
Fore
SplineSet
67 -2 m 2,0,1
 44 1 44 1 33 12 c 128,-1,2
 22 23 22 23 19 46 c 2,3,-1
 19 623 l 1,4,5
 24 645 24 645 36 656 c 128,-1,6
 48 667 48 667 71 667 c 2,7,-1
 174 667 l 2,8,9
 219 667 219 667 257.5 658.5 c 128,-1,10
 296 650 296 650 326 616 c 0,11,12
 349 590 349 590 361 558 c 128,-1,13
 373 526 373 526 373 494 c 0,14,15
 373 429 373 429 325 372 c 1,16,17
 365 338 365 338 385.5 293.5 c 128,-1,18
 406 249 406 249 406 202 c 0,19,20
 406 163 406 163 391.5 126.5 c 128,-1,21
 377 90 377 90 351.5 61.5 c 128,-1,22
 326 33 326 33 291 15.5 c 128,-1,23
 256 -2 256 -2 214 -2 c 2,24,-1
 67 -2 l 2,0,1
106 324 m 1,25,-1
 106 84 l 1,26,-1
 207 84 l 2,27,28
 230 84 230 84 250.5 93 c 128,-1,29
 271 102 271 102 286 118 c 128,-1,30
 301 134 301 134 309.5 155.5 c 128,-1,31
 318 177 318 177 318 201 c 0,32,33
 318 249 318 249 293.5 283.5 c 128,-1,34
 269 318 269 318 214 324 c 1,35,-1
 106 324 l 1,25,-1
106 410 m 1,36,-1
 211 410 l 1,37,38
 245 415 245 415 266.5 437 c 128,-1,39
 288 459 288 459 288 492 c 0,40,41
 288 526 288 526 266.5 551.5 c 128,-1,42
 245 577 245 577 208 580 c 2,43,-1
 106 580 l 1,44,-1
 106 410 l 1,36,-1
EndSplineSet
Validated: 1
EndChar

StartChar: C
Encoding: 67 67 38
Width: 425
GlyphClass: 2
Flags: W
LayerCount: 2
Fore
SplineSet
249 676 m 2,0,1
 282 674 282 674 310.5 657.5 c 128,-1,2
 339 641 339 641 360 619.5 c 128,-1,3
 381 598 381 598 393 575 c 128,-1,4
 405 552 405 552 405 536 c 0,5,6
 405 515 405 515 389 503 c 128,-1,7
 373 491 373 491 355 491 c 0,8,9
 341 491 341 491 328.5 500 c 128,-1,10
 316 509 316 509 310 525 c 0,11,12
 308 533 308 533 301 543.5 c 128,-1,13
 294 554 294 554 284 563 c 128,-1,14
 274 572 274 572 261.5 578.5 c 128,-1,15
 249 585 249 585 235 585 c 2,16,-1
 192 585 l 2,17,18
 174 585 174 585 158.5 576 c 128,-1,19
 143 567 143 567 131.5 551 c 128,-1,20
 120 535 120 535 113 513.5 c 128,-1,21
 106 492 106 492 106 468 c 2,22,-1
 106 198 l 2,23,24
 106 174 106 174 113 152.5 c 128,-1,25
 120 131 120 131 131.5 115 c 128,-1,26
 143 99 143 99 158.5 89.5 c 128,-1,27
 174 80 174 80 192 80 c 2,28,-1
 235 80 l 2,29,30
 249 80 249 80 262 86.5 c 128,-1,31
 275 93 275 93 285.5 103 c 128,-1,32
 296 113 296 113 303 124.5 c 128,-1,33
 310 136 310 136 313 147 c 4,34,35
 318 165 318 165 329.5 172.5 c 128,-1,36
 341 180 341 180 355 180 c 0,37,38
 376 180 376 180 391 165.5 c 128,-1,39
 406 151 406 151 406 128 c 0,40,41
 406 125 406 125 404 116.5 c 128,-1,42
 402 108 402 108 396.5 95.5 c 128,-1,43
 391 83 391 83 381.5 68 c 128,-1,44
 372 53 372 53 357 38 c 0,45,46
 337 14 337 14 307.5 1.5 c 128,-1,47
 278 -11 278 -11 244 -11 c 2,48,-1
 184 -11 l 2,49,50
 150 -11 150 -11 120 2.5 c 128,-1,51
 90 16 90 16 67.5 39.5 c 128,-1,52
 45 63 45 63 32 94 c 128,-1,53
 19 125 19 125 19 160 c 2,54,-1
 19 505 l 2,55,56
 19 540 19 540 32 571 c 128,-1,57
 45 602 45 602 67.5 625.5 c 128,-1,58
 90 649 90 649 120 662.5 c 128,-1,59
 150 676 150 676 184 676 c 2,60,-1
 249 676 l 2,0,1
EndSplineSet
Validated: 1
EndChar

StartChar: D
Encoding: 68 68 39
Width: 425
GlyphClass: 2
Flags: W
LayerCount: 2
Fore
SplineSet
65 -2 m 1,0,-1
 67 -2 l 1,1,2
 44 1 44 1 33 12 c 128,-1,3
 22 23 22 23 19 46 c 2,4,-1
 19 623 l 1,5,6
 24 645 24 645 36 655 c 128,-1,7
 48 665 48 665 71 667 c 2,8,-1
 216 667 l 1,9,10
 254 663 254 663 289 651 c 128,-1,11
 324 639 324 639 351 610 c 256,12,13
 378 581 378 581 392 543.5 c 128,-1,14
 406 506 406 506 406 467 c 2,15,-1
 406 212 l 2,16,17
 406 180 406 180 398 148.5 c 128,-1,18
 390 117 390 117 373.5 89.5 c 128,-1,19
 357 62 357 62 333 41 c 128,-1,20
 309 20 309 20 277 10 c 0,21,22
 261 5 261 5 246.5 2 c 128,-1,23
 232 -1 232 -1 215 -2 c 2,24,-1
 65 -2 l 1,0,-1
203 84 m 1,25,26
 258 89 258 89 288.5 118.5 c 128,-1,27
 319 148 319 148 319 207 c 2,28,-1
 319 463 l 2,29,30
 319 486 319 486 312.5 508.5 c 128,-1,31
 306 531 306 531 289 549 c 0,32,33
 275 563 275 563 256 571.5 c 128,-1,34
 237 580 237 580 215 580 c 2,35,-1
 106 580 l 1,36,-1
 106 84 l 1,37,-1
 203 84 l 1,25,26
EndSplineSet
Validated: 5
EndChar

StartChar: E
Encoding: 69 69 40
Width: 425
GlyphClass: 2
Flags: W
LayerCount: 2
Fore
SplineSet
369 84 m 1,0,1
 389 79 389 79 398 67 c 128,-1,2
 407 55 407 55 407 41 c 0,3,4
 407 28 407 28 395.5 15.5 c 128,-1,5
 384 3 384 3 363 -2 c 1,6,-1
 67 -2 l 2,7,8
 44 1 44 1 33 12 c 128,-1,9
 22 23 22 23 19 46 c 2,10,-1
 19 623 l 1,11,12
 24 644 24 644 35.5 655 c 128,-1,13
 47 666 47 666 70 666 c 2,14,-1
 369 666 l 1,15,16
 407 653 407 653 407 622 c 0,17,18
 407 609 407 609 395.5 597 c 128,-1,19
 384 585 384 585 363 580 c 1,20,-1
 106 580 l 1,21,-1
 106 388 l 1,22,-1
 307 388 l 1,23,24
 345 375 345 375 345 344 c 0,25,26
 345 331 345 331 333 318.5 c 128,-1,27
 321 306 321 306 300 301 c 1,28,-1
 106 301 l 1,29,-1
 106 84 l 1,30,-1
 369 84 l 1,0,1
EndSplineSet
Validated: 1
EndChar

StartChar: F
Encoding: 70 70 41
Width: 425
GlyphClass: 2
Flags: W
LayerCount: 2
Fore
SplineSet
106 49 m 2,0,1
 104 24 104 24 91 11 c 128,-1,2
 78 -2 78 -2 62 -2 c 0,3,4
 48 -2 48 -2 35 10 c 128,-1,5
 22 22 22 22 19 46 c 2,6,-1
 19 623 l 1,7,8
 24 644 24 644 35.5 655 c 128,-1,9
 47 666 47 666 70 666 c 2,10,-1
 369 666 l 1,11,12
 407 653 407 653 407 622 c 0,13,14
 407 609 407 609 395.5 597 c 128,-1,15
 384 585 384 585 363 580 c 1,16,-1
 106 580 l 1,17,-1
 106 388 l 1,18,-1
 307 388 l 1,19,20
 345 375 345 375 345 344 c 0,21,22
 345 331 345 331 333 318.5 c 128,-1,23
 321 306 321 306 300 301 c 1,24,-1
 106 301 l 1,25,-1
 106 49 l 2,0,1
EndSplineSet
Validated: 1
EndChar

StartChar: G
Encoding: 71 71 42
Width: 425
GlyphClass: 2
Flags: W
LayerCount: 2
Fore
SplineSet
258 293 m 2,0,1
 235 295 235 295 223.5 308 c 128,-1,2
 212 321 212 321 212 336 c 0,3,4
 212 352 212 352 225 365 c 128,-1,5
 238 378 238 378 263 378 c 2,6,-1
 371 378 l 1,7,8
 386 374 386 374 394 366 c 128,-1,9
 402 358 402 358 407 344 c 1,10,-1
 407 157 l 2,11,12
 407 122 407 122 395.5 96.5 c 128,-1,13
 384 71 384 71 355 38 c 0,14,15
 312 -11 312 -11 240 -11 c 2,16,-1
 184 -11 l 2,17,18
 150 -11 150 -11 120 2.5 c 128,-1,19
 90 16 90 16 67.5 39.5 c 128,-1,20
 45 63 45 63 32 94 c 128,-1,21
 19 125 19 125 19 160 c 2,22,-1
 19 505 l 2,23,24
 19 540 19 540 32 571 c 128,-1,25
 45 602 45 602 67.5 625.5 c 128,-1,26
 90 649 90 649 120 662.5 c 128,-1,27
 150 676 150 676 184 676 c 2,28,-1
 245 676 l 2,29,30
 277 676 277 676 305.5 660.5 c 128,-1,31
 334 645 334 645 355.5 623 c 128,-1,32
 377 601 377 601 389.5 577 c 128,-1,33
 402 553 402 553 402 536 c 0,34,35
 402 515 402 515 386 503 c 128,-1,36
 370 491 370 491 352 491 c 0,37,38
 338 491 338 491 325.5 500 c 128,-1,39
 313 509 313 509 307 525 c 0,40,41
 304 533 304 533 297.5 543.5 c 128,-1,42
 291 554 291 554 281 563 c 128,-1,43
 271 572 271 572 258.5 578.5 c 128,-1,44
 246 585 246 585 232 585 c 2,45,-1
 192 585 l 2,46,47
 174 585 174 585 158.5 576 c 128,-1,48
 143 567 143 567 131.5 551 c 128,-1,49
 120 535 120 535 113 513.5 c 128,-1,50
 106 492 106 492 106 468 c 2,51,-1
 106 198 l 2,52,53
 106 174 106 174 113 152.5 c 128,-1,54
 120 131 120 131 131.5 115 c 128,-1,55
 143 99 143 99 158.5 89.5 c 128,-1,56
 174 80 174 80 192 80 c 2,57,-1
 232 80 l 2,58,59
 254 83 254 83 270 94.5 c 128,-1,60
 286 106 286 106 297 122.5 c 128,-1,61
 308 139 308 139 313.5 158.5 c 128,-1,62
 319 178 319 178 320 198 c 2,63,-1
 320 293 l 1,64,-1
 258 293 l 2,0,1
EndSplineSet
Validated: 1
EndChar

StartChar: H
Encoding: 72 72 43
Width: 425
GlyphClass: 2
Flags: W
LayerCount: 2
Fore
SplineSet
319 623 m 1,0,1
 324 644 324 644 336.5 655.5 c 128,-1,2
 349 667 349 667 363 667 c 0,3,4
 375 667 375 667 387 657.5 c 128,-1,5
 399 648 399 648 406 629 c 1,6,-1
 406 50 l 2,7,8
 406 24 406 24 392.5 11 c 128,-1,9
 379 -2 379 -2 363 -2 c 0,10,11
 349 -2 349 -2 336 10 c 128,-1,12
 323 22 323 22 319 46 c 1,13,-1
 319 302 l 1,14,-1
 106 302 l 1,15,-1
 106 50 l 2,16,17
 106 24 106 24 92 11 c 128,-1,18
 78 -2 78 -2 62 -2 c 0,19,20
 48 -2 48 -2 35 10 c 128,-1,21
 22 22 22 22 19 46 c 2,22,-1
 19 623 l 1,23,24
 24 644 24 644 36.5 655.5 c 128,-1,25
 49 667 49 667 62 667 c 256,26,27
 75 667 75 667 87 657.5 c 128,-1,28
 99 648 99 648 106 629 c 1,29,-1
 106 389 l 1,30,-1
 319 389 l 1,31,-1
 319 623 l 1,0,1
EndSplineSet
Validated: 1
EndChar

StartChar: I
Encoding: 73 73 44
Width: 425
GlyphClass: 2
Flags: W
LayerCount: 2
Fore
SplineSet
138 580 m 2,0,1
 116 583 116 583 104.5 595.5 c 128,-1,2
 93 608 93 608 93 623 c 0,3,4
 93 639 93 639 105.5 652.5 c 128,-1,5
 118 666 118 666 143 666 c 2,6,-1
 297 666 l 1,7,8
 335 653 335 653 335 622 c 0,9,10
 335 609 335 609 323 597 c 128,-1,11
 311 585 311 585 291 580 c 1,12,-1
 256 580 l 1,13,-1
 256 84 l 1,14,-1
 297 84 l 1,15,16
 317 79 317 79 326 67 c 128,-1,17
 335 55 335 55 335 41 c 0,18,19
 335 28 335 28 323 15.5 c 128,-1,20
 311 3 311 3 291 -2 c 1,21,-1
 138 -2 l 2,22,23
 116 1 116 1 104.5 15 c 128,-1,24
 93 29 93 29 93 43 c 0,25,26
 93 59 93 59 105.5 71.5 c 128,-1,27
 118 84 118 84 143 84 c 2,28,-1
 170 84 l 1,29,-1
 170 580 l 1,30,-1
 138 580 l 2,0,1
EndSplineSet
Validated: 1
EndChar

StartChar: J
Encoding: 74 74 45
Width: 425
GlyphClass: 2
Flags: W
LayerCount: 2
Fore
SplineSet
27 85 m 2,0,1
 23 93 23 93 22 97.5 c 128,-1,2
 21 102 21 102 21 109 c 0,3,4
 21 128 21 128 33 139 c 128,-1,5
 45 150 45 150 61 150 c 0,6,7
 71 150 71 150 82 144.5 c 128,-1,8
 93 139 93 139 102 125 c 0,9,10
 119 100 119 100 148 87 c 128,-1,11
 177 74 177 74 208 74 c 0,12,13
 255 74 255 74 287 104 c 128,-1,14
 319 134 319 134 319 191 c 2,15,-1
 319 623 l 1,16,17
 324 644 324 644 336.5 655.5 c 128,-1,18
 349 667 349 667 363 667 c 0,19,20
 375 667 375 667 387 657.5 c 128,-1,21
 399 648 399 648 406 629 c 1,22,-1
 406 195 l 2,23,24
 406 144 406 144 389 105.5 c 128,-1,25
 372 67 372 67 344 41 c 128,-1,26
 316 15 316 15 279.5 2 c 128,-1,27
 243 -11 243 -11 204 -11 c 0,28,29
 154 -11 154 -11 107 11.5 c 128,-1,30
 60 34 60 34 29 82 c 2,31,-1
 27 85 l 2,0,1
EndSplineSet
Validated: 1
EndChar

StartChar: K
Encoding: 75 75 46
Width: 425
GlyphClass: 2
Flags: W
LayerCount: 2
Fore
SplineSet
394 74 m 2,0,1
 407 54 407 54 407 39 c 0,2,3
 407 22 407 22 395 10.5 c 128,-1,4
 383 -1 383 -1 367 -1 c 0,5,6
 350 -1 350 -1 329 17 c 1,7,-1
 139 272 l 1,8,-1
 107 230 l 1,9,-1
 107 50 l 2,10,11
 107 24 107 24 93 11 c 128,-1,12
 79 -2 79 -2 64 -2 c 256,13,14
 49 -2 49 -2 36 10 c 128,-1,15
 23 22 23 22 21 46 c 2,16,-1
 21 623 l 1,17,18
 26 644 26 644 38 655.5 c 128,-1,19
 50 667 50 667 63 667 c 0,20,21
 77 667 77 667 88.5 657.5 c 128,-1,22
 100 648 100 648 107 629 c 1,23,-1
 107 369 l 1,24,25
 132 400 132 400 160.5 436 c 128,-1,26
 189 472 189 472 219 509.5 c 128,-1,27
 249 547 249 547 278 583 c 128,-1,28
 307 619 307 619 332 651 c 1,29,30
 351 664 351 664 368 664 c 0,31,32
 384 664 384 664 395 653 c 128,-1,33
 406 642 406 642 406 623 c 0,34,35
 406 618 406 618 405 612.5 c 128,-1,36
 404 607 404 607 402 600 c 2,37,-1
 195 340 l 1,38,-1
 394 74 l 2,0,1
EndSplineSet
Validated: 1
EndChar

StartChar: L
Encoding: 76 76 47
Width: 425
GlyphClass: 2
Flags: W
LayerCount: 2
Fore
SplineSet
15 623 m 1,0,1
 20 644 20 644 32 655.5 c 128,-1,2
 44 667 44 667 58 667 c 0,3,4
 71 667 71 667 83 657.5 c 128,-1,5
 95 648 95 648 102 629 c 1,6,-1
 102 84 l 1,7,-1
 372 84 l 1,8,9
 391 79 391 79 400.5 67 c 128,-1,10
 410 55 410 55 410 41 c 0,11,12
 410 28 410 28 398 15.5 c 128,-1,13
 386 3 386 3 366 -2 c 1,14,-1
 63 -2 l 2,15,16
 40 1 40 1 29 12 c 128,-1,17
 18 23 18 23 15 46 c 2,18,-1
 15 623 l 1,0,1
EndSplineSet
Validated: 1
EndChar

StartChar: M
Encoding: 77 77 48
Width: 425
GlyphClass: 2
Flags: W
LayerCount: 2
Fore
SplineSet
99 47 m 1,0,1
 97 24 97 24 85 12 c 128,-1,2
 73 0 73 0 57 0 c 0,3,4
 43 0 43 0 30.5 10.5 c 128,-1,5
 18 21 18 21 15 43 c 2,6,-1
 15 625 l 1,7,8
 20 645 20 645 30.5 655 c 128,-1,9
 41 665 41 665 55 665 c 0,10,11
 77 665 77 665 94 641 c 2,12,-1
 213 424 l 1,13,14
 242 478 242 478 271.5 531 c 128,-1,15
 301 584 301 584 331 638 c 0,16,17
 338 652 338 652 348 658.5 c 128,-1,18
 358 665 358 665 369 665 c 0,19,20
 382 665 382 665 393.5 656 c 128,-1,21
 405 647 405 647 410 629 c 1,22,-1
 410 47 l 2,23,24
 409 24 409 24 396.5 12 c 128,-1,25
 384 0 384 0 369 0 c 0,26,27
 355 0 355 0 342.5 10.5 c 128,-1,28
 330 21 330 21 327 43 c 2,29,-1
 327 459 l 1,30,-1
 249 315 l 1,31,32
 233 296 233 296 214 296 c 0,33,34
 197 296 197 296 179 312 c 1,35,36
 159 350 159 350 139 386.5 c 128,-1,37
 119 423 119 423 99 460 c 1,38,-1
 99 47 l 1,39,-1
 99 47 l 1,0,1
EndSplineSet
Validated: 5
EndChar

StartChar: N
Encoding: 78 78 49
Width: 425
GlyphClass: 2
Flags: W
LayerCount: 2
Fore
SplineSet
99 47 m 1,0,1
 97 24 97 24 85 12 c 128,-1,2
 73 0 73 0 57 0 c 0,3,4
 43 0 43 0 30.5 10.5 c 128,-1,5
 18 21 18 21 15 43 c 2,6,-1
 15 625 l 1,7,8
 20 645 20 645 30.5 655 c 128,-1,9
 41 665 41 665 55 665 c 0,10,11
 77 665 77 665 94 641 c 2,12,-1
 327 208 l 1,13,-1
 327 625 l 1,14,15
 331 645 331 645 343 655 c 128,-1,16
 355 665 355 665 369 665 c 0,17,18
 382 665 382 665 393.5 656 c 128,-1,19
 405 647 405 647 410 629 c 1,20,-1
 410 47 l 2,21,22
 409 24 409 24 397.5 12 c 128,-1,23
 386 0 386 0 371 0 c 0,24,25
 353 0 353 0 334 17 c 1,26,-1
 99 458 l 1,27,-1
 99 47 l 1,28,-1
 99 47 l 1,0,1
EndSplineSet
Validated: 5
EndChar

StartChar: O
Encoding: 79 79 50
Width: 425
GlyphClass: 2
Flags: W
LayerCount: 2
Fore
SplineSet
319 504 m 2,0,1
 319 526 319 526 311 545 c 0,2,3
 303 565 303 565 285.5 578 c 128,-1,4
 268 591 268 591 246 591 c 0,5,6
 227 591 227 591 216 591.5 c 128,-1,7
 205 592 205 592 199 592 c 128,-1,8
 193 592 193 592 190.5 592 c 128,-1,9
 188 592 188 592 187 592 c 2,10,-1
 169 591 l 2,11,12
 154 588 154 588 142.5 578.5 c 128,-1,13
 131 569 131 569 123 556 c 128,-1,14
 115 543 115 543 110.5 528 c 128,-1,15
 106 513 106 513 106 499 c 2,16,-1
 106 188 l 2,17,18
 106 171 106 171 107 153.5 c 128,-1,19
 108 136 108 136 116 119 c 0,20,21
 130 88 130 88 154 80 c 128,-1,22
 178 72 178 72 206 72 c 2,23,-1
 242 72 l 2,24,25
 256 74 256 74 267.5 77 c 128,-1,26
 279 80 279 80 290 88 c 0,27,28
 309 104 309 104 313.5 124 c 128,-1,29
 318 144 318 144 319 166 c 2,30,-1
 319 504 l 2,0,1
405 154 m 2,31,32
 403 115 403 115 389 80 c 128,-1,33
 375 45 375 45 345 20 c 0,34,35
 324 3 324 3 298.5 -4.5 c 128,-1,36
 273 -12 273 -12 246 -13 c 2,37,-1
 220 -13 l 2,38,39
 169 -13 169 -13 125.5 -0.5 c 128,-1,40
 82 12 82 12 51 57 c 0,41,42
 32 85 32 85 25.5 119 c 128,-1,43
 19 153 19 153 19 188 c 2,44,-1
 19 504 l 2,45,46
 19 533 19 533 29 561 c 128,-1,47
 39 589 39 589 57 612.5 c 128,-1,48
 75 636 75 636 99.5 652.5 c 128,-1,49
 124 669 124 669 153 675 c 0,50,51
 164 678 164 678 175.5 678.5 c 128,-1,52
 187 679 187 679 198 679 c 2,53,-1
 250 679 l 2,54,55
 280 677 280 677 310 662 c 128,-1,56
 340 647 340 647 362 625 c 0,57,58
 382 602 382 602 394 570.5 c 128,-1,59
 406 539 406 539 406 508 c 2,60,-1
 406 171 l 1,61,-1
 405 154 l 2,31,32
EndSplineSet
Validated: 1
EndChar

StartChar: P
Encoding: 80 80 51
Width: 425
GlyphClass: 2
Flags: W
LayerCount: 2
Fore
SplineSet
106 50 m 2,0,1
 104 24 104 24 91 11 c 128,-1,2
 78 -2 78 -2 62 -2 c 0,3,4
 48 -2 48 -2 35 10 c 128,-1,5
 22 22 22 22 19 46 c 2,6,-1
 19 623 l 1,7,8
 24 644 24 644 35.5 655 c 128,-1,9
 47 666 47 666 70 666 c 2,10,-1
 242 666 l 2,11,12
 261 666 261 666 277.5 660 c 128,-1,13
 294 654 294 654 308 646 c 0,14,15
 356 618 356 618 381 571 c 128,-1,16
 406 524 406 524 406 473 c 0,17,18
 406 423 406 423 380.5 377.5 c 128,-1,19
 355 332 355 332 303 306 c 0,20,21
 272 290 272 290 238 287 c 2,22,-1
 106 287 l 1,23,-1
 106 50 l 2,0,1
106 375 m 1,24,-1
 227 375 l 2,25,26
 237 375 237 375 247.5 377 c 128,-1,27
 258 379 258 379 267 385 c 0,28,29
 294 401 294 401 306.5 424 c 128,-1,30
 319 447 319 447 319 473 c 0,31,32
 319 501 319 501 305 527 c 128,-1,33
 291 553 291 553 265 570 c 0,34,35
 248 580 248 580 231 580 c 2,36,-1
 106 580 l 1,37,-1
 106 375 l 1,24,-1
EndSplineSet
Validated: 1
EndChar

StartChar: Q
Encoding: 81 81 52
Width: 425
GlyphClass: 2
Flags: W
LayerCount: 2
Fore
SplineSet
405 154 m 2,0,1
 403 130 403 130 398 107.5 c 128,-1,2
 393 85 393 85 382 65 c 1,3,-1
 386 60 l 2,4,5
 392 52 392 52 394.5 43 c 128,-1,6
 397 34 397 34 397 27 c 0,7,8
 397 10 397 10 386 -1.5 c 128,-1,9
 375 -13 375 -13 358 -13 c 0,10,11
 350 -13 350 -13 339.5 -8.5 c 128,-1,12
 329 -4 329 -4 319 5 c 1,13,14
 302 -3 302 -3 283.5 -8 c 128,-1,15
 265 -13 265 -13 246 -13 c 2,16,-1
 220 -13 l 2,17,18
 181 -13 181 -13 144.5 -4.5 c 128,-1,19
 108 4 108 4 80.5 26.5 c 128,-1,20
 53 49 53 49 36 88 c 128,-1,21
 19 127 19 127 19 188 c 2,22,-1
 19 504 l 2,23,24
 19 541 19 541 33 573 c 128,-1,25
 47 605 47 605 71 628.5 c 128,-1,26
 95 652 95 652 127.5 665.5 c 128,-1,27
 160 679 160 679 198 679 c 2,28,-1
 250 679 l 2,29,30
 282 676 282 676 310.5 661.5 c 128,-1,31
 339 647 339 647 360 624 c 128,-1,32
 381 601 381 601 393.5 571 c 128,-1,33
 406 541 406 541 406 508 c 2,34,-1
 406 171 l 1,35,-1
 405 154 l 2,0,1
224 103 m 1,36,37
 216 119 216 119 216 132 c 0,38,39
 216 149 216 149 227 160.5 c 128,-1,40
 238 172 238 172 254 172 c 0,41,42
 273 172 273 172 286.5 159 c 128,-1,43
 300 146 300 146 315 132 c 1,44,45
 317 140 317 140 317.5 148.5 c 128,-1,46
 318 157 318 157 319 166 c 2,47,-1
 319 504 l 2,48,49
 319 525 319 525 311 546 c 1,50,-1
 311 545 l 1,51,52
 303 565 303 565 285.5 578 c 128,-1,53
 268 591 268 591 246 591 c 2,54,-1
 169 591 l 2,55,56
 154 588 154 588 142.5 578.5 c 128,-1,57
 131 569 131 569 123 556 c 128,-1,58
 115 543 115 543 110.5 528 c 128,-1,59
 106 513 106 513 106 499 c 2,60,-1
 106 188 l 2,61,62
 106 150 106 150 114 127.5 c 128,-1,63
 122 105 122 105 135.5 92.5 c 128,-1,64
 149 80 149 80 167.5 76 c 128,-1,65
 186 72 186 72 206 72 c 2,66,-1
 242 72 l 2,67,68
 250 72 250 72 253 73 c 1,69,-1
 224 103 l 1,36,37
EndSplineSet
Validated: 1
EndChar

StartChar: R
Encoding: 82 82 53
Width: 425
GlyphClass: 2
Flags: W
LayerCount: 2
Fore
SplineSet
403 59 m 2,0,1
 404 54 404 54 404.5 50 c 128,-1,2
 405 46 405 46 405 42 c 0,3,4
 405 22 405 22 394 10 c 128,-1,5
 383 -2 383 -2 366 -2 c 0,6,7
 346 -2 346 -2 328 15 c 1,8,9
 286 80 286 80 238.5 150.5 c 128,-1,10
 191 221 191 221 148 287 c 1,11,-1
 106 287 l 1,12,-1
 106 49 l 2,13,14
 104 23 104 23 91 10.5 c 128,-1,15
 78 -2 78 -2 62 -2 c 0,16,17
 48 -2 48 -2 35 10 c 128,-1,18
 22 22 22 22 19 46 c 2,19,-1
 19 623 l 1,20,21
 24 644 24 644 35.5 655 c 128,-1,22
 47 666 47 666 70 666 c 2,23,-1
 242 666 l 2,24,25
 261 666 261 666 277.5 660 c 128,-1,26
 294 654 294 654 308 646 c 0,27,28
 356 618 356 618 381 571 c 128,-1,29
 406 524 406 524 406 473 c 0,30,31
 406 443 406 443 396.5 413 c 128,-1,32
 387 383 387 383 367.5 357.5 c 128,-1,33
 348 332 348 332 319 313.5 c 128,-1,34
 290 295 290 295 251 289 c 1,35,-1
 403 59 l 2,0,1
106 375 m 1,36,-1
 227 375 l 2,37,38
 251 375 251 375 268.5 384.5 c 128,-1,39
 286 394 286 394 297.5 408.5 c 128,-1,40
 309 423 309 423 314 440.5 c 128,-1,41
 319 458 319 458 319 473 c 0,42,43
 319 489 319 489 313 507.5 c 128,-1,44
 307 526 307 526 295.5 542 c 128,-1,45
 284 558 284 558 268 569 c 128,-1,46
 252 580 252 580 231 580 c 2,47,-1
 106 580 l 1,48,-1
 106 375 l 1,36,-1
EndSplineSet
Validated: 1
EndChar

StartChar: S
Encoding: 83 83 54
Width: 425
GlyphClass: 2
Flags: W
LayerCount: 2
Fore
SplineSet
369 586 m 0,0,1
 382 566 382 566 382 551 c 0,2,3
 382 534 382 534 370 522.5 c 128,-1,4
 358 511 358 511 342 511 c 0,5,6
 333 511 333 511 318.5 518 c 128,-1,7
 304 525 304 525 296 539 c 0,8,9
 284 554 284 554 264.5 567 c 128,-1,10
 245 580 245 580 217 580 c 0,11,12
 200 580 200 580 181 573 c 128,-1,13
 162 566 162 566 145 553.5 c 128,-1,14
 128 541 128 541 117 523 c 128,-1,15
 106 505 106 505 106 484 c 0,16,17
 106 449 106 449 125.5 432 c 128,-1,18
 145 415 145 415 173 407.5 c 128,-1,19
 201 400 201 400 230.5 397 c 128,-1,20
 260 394 260 394 281 387 c 0,21,22
 308 375 308 375 331 355.5 c 128,-1,23
 354 336 354 336 371 310.5 c 128,-1,24
 388 285 388 285 397.5 256.5 c 128,-1,25
 407 228 407 228 407 198 c 0,26,27
 407 157 407 157 392.5 120.5 c 128,-1,28
 378 84 378 84 352.5 56 c 128,-1,29
 327 28 327 28 292 11.5 c 128,-1,30
 257 -5 257 -5 216 -5 c 0,31,32
 162 -5 162 -5 121.5 20 c 128,-1,33
 81 45 81 45 51 82 c 1,34,35
 44 98 44 98 44 110 c 0,36,37
 44 127 44 127 55 138.5 c 128,-1,38
 66 150 66 150 82 150 c 0,39,40
 96 150 96 150 106 143.5 c 128,-1,41
 116 137 116 137 125.5 128 c 128,-1,42
 135 119 135 119 147 108.5 c 128,-1,43
 159 98 159 98 177 90 c 256,44,45
 195 82 195 82 214 82 c 0,46,47
 239 82 239 82 258.5 92 c 128,-1,48
 278 102 278 102 291.5 118.5 c 128,-1,49
 305 135 305 135 312.5 155 c 128,-1,50
 320 175 320 175 320 195 c 0,51,52
 320 213 320 213 314 234 c 0,53,54
 303 270 303 270 286 285.5 c 128,-1,55
 269 301 269 301 248 306 c 128,-1,56
 227 311 227 311 202.5 312 c 128,-1,57
 178 313 178 313 154 321 c 0,58,59
 127 330 127 330 102.5 346 c 128,-1,60
 78 362 78 362 59.5 384 c 128,-1,61
 41 406 41 406 30 432 c 128,-1,62
 19 458 19 458 19 488 c 0,63,64
 19 525 19 525 38 557.5 c 128,-1,65
 57 590 57 590 85.5 614 c 128,-1,66
 114 638 114 638 148.5 652 c 128,-1,67
 183 666 183 666 215 666 c 0,68,69
 258 666 258 666 298.5 646.5 c 128,-1,70
 339 627 339 627 369 586 c 0,0,1
EndSplineSet
Validated: 1
EndChar

StartChar: T
Encoding: 84 84 55
Width: 425
GlyphClass: 2
Flags: W
LayerCount: 2
Fore
SplineSet
374 665 m 1,0,1
 392 659 392 659 401 648 c 128,-1,2
 410 637 410 637 410 623 c 256,3,4
 410 609 410 609 400 597.5 c 128,-1,5
 390 586 390 586 370 581 c 1,6,-1
 255 581 l 1,7,-1
 255 47 l 2,8,9
 253 24 253 24 240.5 12 c 128,-1,10
 228 0 228 0 213 0 c 0,11,12
 199 0 199 0 186.5 10.5 c 128,-1,13
 174 21 174 21 171 43 c 2,14,-1
 171 581 l 1,15,-1
 59 581 l 2,16,17
 37 584 37 584 26 596.5 c 128,-1,18
 15 609 15 609 15 623 c 0,19,20
 15 639 15 639 27 651 c 128,-1,21
 39 663 39 663 62 665 c 2,22,-1
 374 665 l 1,0,1
EndSplineSet
Validated: 1
EndChar

StartChar: U
Encoding: 85 85 56
Width: 425
GlyphClass: 2
Flags: W
LayerCount: 2
Fore
SplineSet
319 622 m 1,0,1
 324 643 324 643 336.5 655 c 128,-1,2
 349 667 349 667 363 667 c 0,3,4
 375 667 375 667 387 657.5 c 128,-1,5
 399 648 399 648 406 629 c 1,6,-1
 406 154 l 2,7,8
 403 116 403 116 389 80.5 c 128,-1,9
 375 45 375 45 345 21 c 0,10,11
 324 4 324 4 298.5 -4 c 128,-1,12
 273 -12 273 -12 246 -13 c 2,13,-1
 220 -13 l 2,14,15
 169 -13 169 -13 125.5 -0.5 c 128,-1,16
 82 12 82 12 51 57 c 0,17,18
 32 85 32 85 25.5 119.5 c 128,-1,19
 19 154 19 154 19 188 c 2,20,-1
 19 622 l 1,21,22
 24 643 24 643 36.5 655 c 128,-1,23
 49 667 49 667 62 667 c 256,24,25
 75 667 75 667 87 657.5 c 128,-1,26
 99 648 99 648 106 629 c 1,27,-1
 106 188 l 2,28,29
 106 171 106 171 107 153.5 c 128,-1,30
 108 136 108 136 115 120 c 0,31,32
 130 88 130 88 154 80 c 128,-1,33
 178 72 178 72 206 72 c 2,34,-1
 242 72 l 2,35,36
 256 74 256 74 267.5 77 c 128,-1,37
 279 80 279 80 290 88 c 0,38,39
 309 104 309 104 313.5 124 c 128,-1,40
 318 144 318 144 319 166 c 2,41,-1
 319 622 l 1,0,1
EndSplineSet
Validated: 1
EndChar

StartChar: V
Encoding: 86 86 57
Width: 425
GlyphClass: 2
Flags: W
LayerCount: 2
Fore
SplineSet
17 611 m 0,0,1
 16 614 16 614 16 619 c 0,2,3
 16 641 16 641 28.5 653 c 128,-1,4
 41 665 41 665 56 665 c 0,5,6
 70 665 70 665 82 656.5 c 128,-1,7
 94 648 94 648 99 629 c 2,8,-1
 213 202 l 1,9,10
 242 311 242 311 271 420 c 128,-1,11
 300 529 300 529 330 638 c 0,12,13
 338 652 338 652 348.5 658.5 c 128,-1,14
 359 665 359 665 370 665 c 0,15,16
 387 665 387 665 398.5 651.5 c 128,-1,17
 410 638 410 638 410 615 c 1,18,19
 370 469 370 469 331.5 324 c 128,-1,20
 293 179 293 179 254 33 c 1,21,22
 240 0 240 0 213 0 c 0,23,24
 202 0 202 0 191 7.5 c 128,-1,25
 180 15 180 15 173 30 c 0,26,27
 134 176 134 176 95 320.5 c 128,-1,28
 56 465 56 465 17 611 c 0,0,1
EndSplineSet
Validated: 1
EndChar

StartChar: W
Encoding: 87 87 58
Width: 425
GlyphClass: 2
Flags: W
LayerCount: 2
Fore
SplineSet
15 625 m 1,0,1
 20 645 20 645 31.5 655 c 128,-1,2
 43 665 43 665 57 665 c 0,3,4
 70 665 70 665 81.5 656 c 128,-1,5
 93 647 93 647 99 629 c 1,6,-1
 99 204 l 1,7,8
 117 238 117 238 135 271.5 c 128,-1,9
 153 305 153 305 173 340 c 0,10,11
 181 353 181 353 191 359.5 c 128,-1,12
 201 366 201 366 212 366 c 0,13,14
 233 366 233 366 249 343 c 2,15,-1
 327 204 l 1,16,-1
 327 622 l 1,17,18
 331 642 331 642 343 652.5 c 128,-1,19
 355 663 355 663 369 663 c 0,20,21
 381 663 381 663 393 654 c 128,-1,22
 405 645 405 645 410 626 c 1,23,-1
 410 47 l 2,24,25
 409 24 409 24 397.5 12 c 128,-1,26
 386 0 386 0 371 0 c 0,27,28
 351 0 351 0 334 17 c 1,29,30
 304 73 304 73 273.5 128 c 128,-1,31
 243 183 243 183 212 238 c 1,32,33
 183 184 183 184 153 129.5 c 128,-1,34
 123 75 123 75 93 21 c 1,35,36
 76 0 76 0 55 0 c 0,37,38
 41 0 41 0 29.5 11 c 128,-1,39
 18 22 18 22 15 43 c 2,40,-1
 15 625 l 1,41,-1
 15 625 l 1,0,1
EndSplineSet
Validated: 5
EndChar

StartChar: X
Encoding: 88 88 59
Width: 425
GlyphClass: 2
Flags: W
LayerCount: 2
Fore
SplineSet
23 599 m 0,0,1
 16 612 16 612 16 625 c 0,2,3
 16 642 16 642 27.5 653 c 128,-1,4
 39 664 39 664 55 664 c 0,5,6
 65 664 65 664 75.5 658.5 c 128,-1,7
 86 653 86 653 94 641 c 2,8,-1
 213 421 l 1,9,10
 242 475 242 475 271 529 c 128,-1,11
 300 583 300 583 330 638 c 0,12,13
 338 652 338 652 348.5 658 c 128,-1,14
 359 664 359 664 370 664 c 0,15,16
 385 664 385 664 397 653 c 128,-1,17
 409 642 409 642 409 624 c 0,18,19
 409 615 409 615 404 602 c 0,20,21
 368 534 368 534 332.5 467 c 128,-1,22
 297 400 297 400 260 332 c 1,23,-1
 406 60 l 2,24,25
 407 55 407 55 408 50.5 c 128,-1,26
 409 46 409 46 409 42 c 0,27,28
 409 23 409 23 397.5 12 c 128,-1,29
 386 1 386 1 371 1 c 0,30,31
 362 1 362 1 352.5 4.5 c 128,-1,32
 343 8 343 8 334 17 c 0,33,34
 304 74 304 74 274 130.5 c 128,-1,35
 244 187 244 187 213 244 c 1,36,-1
 93 21 l 2,37,38
 84 10 84 10 74 5.5 c 128,-1,39
 64 1 64 1 55 1 c 0,40,41
 39 1 39 1 28 12 c 128,-1,42
 17 23 17 23 17 43 c 0,43,44
 17 52 17 52 18 57 c 0,45,46
 55 126 55 126 91.5 195 c 128,-1,47
 128 264 128 264 166 333 c 1,48,49
 130 399 130 399 94 465.5 c 128,-1,50
 58 532 58 532 23 599 c 0,0,1
EndSplineSet
Validated: 1
EndChar

StartChar: Y
Encoding: 89 89 60
Width: 425
GlyphClass: 2
Flags: W
LayerCount: 2
Fore
SplineSet
255 47 m 1,0,1
 253 24 253 24 240.5 12 c 128,-1,2
 228 0 228 0 213 0 c 0,3,4
 199 0 199 0 186.5 10.5 c 128,-1,5
 174 21 174 21 171 43 c 2,6,-1
 171 314 l 1,7,8
 133 385 133 385 96 456 c 128,-1,9
 59 527 59 527 23 599 c 0,10,11
 16 612 16 612 16 625 c 0,12,13
 16 642 16 642 27.5 653 c 128,-1,14
 39 664 39 664 55 664 c 0,15,16
 65 664 65 664 75.5 658.5 c 128,-1,17
 86 653 86 653 94 641 c 0,18,19
 124 584 124 584 153.5 528 c 128,-1,20
 183 472 183 472 213 415 c 1,21,22
 242 471 242 471 270.5 527 c 128,-1,23
 299 583 299 583 330 638 c 0,24,25
 338 652 338 652 348.5 658 c 128,-1,26
 359 664 359 664 370 664 c 0,27,28
 385 664 385 664 397 653 c 128,-1,29
 409 642 409 642 409 624 c 0,30,31
 409 615 409 615 404 602 c 0,32,33
 366 530 366 530 329 458.5 c 128,-1,34
 292 387 292 387 255 315 c 1,35,-1
 255 47 l 1,36,-1
 255 47 l 1,0,1
EndSplineSet
Validated: 5
EndChar

StartChar: Z
Encoding: 90 90 61
Width: 425
GlyphClass: 2
Flags: W
LayerCount: 2
Fore
SplineSet
59 581 m 1,0,1
 36 584 36 584 25.5 596.5 c 128,-1,2
 15 609 15 609 15 623 c 0,3,4
 15 638 15 638 27 651.5 c 128,-1,5
 39 665 39 665 62 665 c 2,6,-1
 374 665 l 1,7,8
 409 653 409 653 409 624 c 0,9,10
 409 615 409 615 404 602 c 0,11,12
 335 471 335 471 265.5 342.5 c 128,-1,13
 196 214 196 214 127 84 c 1,14,-1
 374 84 l 1,15,16
 392 78 392 78 401 66.5 c 128,-1,17
 410 55 410 55 410 42 c 0,18,19
 410 28 410 28 400 16 c 128,-1,20
 390 4 390 4 370 0 c 1,21,-1
 59 0 l 1,22,23
 17 5 17 5 17 43 c 0,24,25
 17 46 17 46 17 49.5 c 128,-1,26
 17 53 17 53 18 57 c 0,27,28
 89 189 89 189 158.5 319.5 c 128,-1,29
 228 450 228 450 299 581 c 1,30,-1
 59 581 l 1,31,-1
 59 581 l 1,0,1
EndSplineSet
Validated: 5
EndChar

StartChar: bracketleft
Encoding: 91 91 62
Width: 425
GlyphClass: 2
Flags: W
LayerCount: 2
Fore
SplineSet
335 665 m 1,0,1
 353 659 353 659 362.5 647.5 c 128,-1,2
 372 636 372 636 372 623 c 0,3,4
 372 609 372 609 361.5 597.5 c 128,-1,5
 351 586 351 586 331 581 c 1,6,-1
 255 581 l 1,7,-1
 255 84 l 1,8,-1
 335 84 l 1,9,10
 353 78 353 78 362.5 66.5 c 128,-1,11
 372 55 372 55 372 42 c 0,12,13
 372 28 372 28 361.5 16 c 128,-1,14
 351 4 351 4 331 0 c 1,15,-1
 214 0 l 1,16,17
 177 6 177 6 171 43 c 1,18,-1
 171 625 l 1,19,20
 178 662 178 662 218 665 c 2,21,-1
 335 665 l 1,22,-1
 335 665 l 1,0,1
EndSplineSet
Validated: 5
EndChar

StartChar: backslash
Encoding: 92 92 63
Width: 425
GlyphClass: 2
Flags: W
LayerCount: 2
Fore
SplineSet
23 599 m 0,0,1
 16 612 16 612 16 625 c 0,2,3
 16 642 16 642 27.5 653 c 128,-1,4
 39 664 39 664 55 664 c 0,5,6
 65 664 65 664 75.5 658.5 c 128,-1,7
 86 653 86 653 94 641 c 0,8,9
 172 495 172 495 250 350.5 c 128,-1,10
 328 206 328 206 406 60 c 0,11,12
 407 55 407 55 408 50.5 c 128,-1,13
 409 46 409 46 409 42 c 0,14,15
 409 23 409 23 397.5 12 c 128,-1,16
 386 1 386 1 371 1 c 0,17,18
 362 1 362 1 352.5 4.5 c 128,-1,19
 343 8 343 8 334 17 c 0,20,21
 256 163 256 163 178.5 308 c 128,-1,22
 101 453 101 453 23 599 c 0,0,1
EndSplineSet
Validated: 1
EndChar

StartChar: bracketright
Encoding: 93 93 64
Width: 425
GlyphClass: 2
Flags: W
LayerCount: 2
Fore
SplineSet
97 665 m 1,0,-1
 214 665 l 2,1,2
 252 662 252 662 261 625 c 1,3,-1
 261 43 l 1,4,5
 255 6 255 6 217 0 c 1,6,-1
 100 0 l 1,7,8
 80 4 80 4 70 16 c 128,-1,9
 60 28 60 28 60 42 c 0,10,11
 60 55 60 55 69 66.5 c 128,-1,12
 78 78 78 78 97 84 c 1,13,-1
 177 84 l 1,14,-1
 177 581 l 1,15,-1
 100 581 l 1,16,17
 80 586 80 586 70 597.5 c 128,-1,18
 60 609 60 609 60 623 c 0,19,20
 60 636 60 636 69 647.5 c 128,-1,21
 78 659 78 659 97 665 c 1,0,-1
EndSplineSet
Validated: 1
EndChar

StartChar: underscore
Encoding: 95 95 65
Width: 425
GlyphClass: 2
Flags: W
LayerCount: 2
Fore
SplineSet
59 0 m 1,0,1
 36 3 36 3 25.5 15.5 c 128,-1,2
 15 28 15 28 15 42 c 0,3,4
 15 57 15 57 27 69.5 c 128,-1,5
 39 82 39 82 62 84 c 2,6,-1
 374 84 l 1,7,8
 392 78 392 78 401 66.5 c 128,-1,9
 410 55 410 55 410 42 c 0,10,11
 410 28 410 28 400 16 c 128,-1,12
 390 4 390 4 370 0 c 1,13,-1
 59 0 l 1,14,-1
 59 0 l 1,0,1
EndSplineSet
Validated: 5
EndChar

StartChar: a
Encoding: 97 97 66
Width: 361
VWidth: 711
GlyphClass: 2
Flags: W
LayerCount: 2
Fore
SplineSet
207 476 m 0,0,1
 215 468 215 468 218 455 c 0,2,3
 223 436 223 436 328 48 c 0,4,5
 328 47 328 47 328 46 c 128,-1,6
 328 45 328 45 328 44 c 0,7,8
 327 24 327 24 316 13 c 128,-1,9
 305 2 305 2 292 2 c 0,10,11
 264 2 264 2 252 29 c 0,12,13
 252 30 252 30 241.5 69.5 c 128,-1,14
 231 109 231 109 225 132 c 1,15,-1
 136 132 l 1,16,17
 110 32 110 32 109 31 c 0,18,19
 103 16 103 16 92.5 9 c 128,-1,20
 82 2 82 2 69 2 c 0,21,22
 55 2 55 2 44 13 c 128,-1,23
 33 24 33 24 33 42 c 0,24,25
 33 49 33 49 34 54 c 2,26,-1
 143 461 l 2,27,28
 143 462 143 462 146 466 c 128,-1,29
 149 470 149 470 154 475 c 0,30,31
 166 487 166 487 181 487 c 128,-1,32
 196 487 196 487 207 476 c 0,0,1
203 211 m 1,33,34
 196 239 196 239 190 260 c 128,-1,35
 184 281 184 281 180 297 c 1,36,37
 176 281 176 281 170.5 259.5 c 128,-1,38
 165 238 165 238 157 211 c 1,39,-1
 203 211 l 1,33,34
EndSplineSet
Validated: 1
EndChar

StartChar: b
Encoding: 98 98 67
Width: 361
VWidth: 711
GlyphClass: 2
Flags: W
LayerCount: 2
Fore
SplineSet
35 44 m 2,0,-1
 35 448 l 2,1,2
 35 449 35 449 35 451 c 0,3,4
 40 469 40 469 50.5 479 c 128,-1,5
 61 489 61 489 81 489 c 2,6,-1
 154 489 l 2,7,8
 187 489 187 489 214 483 c 0,9,10
 244 476 244 476 267 450 c 0,11,12
 284 431 284 431 293.5 406.5 c 128,-1,13
 303 382 303 382 303 358 c 0,14,15
 303 313 303 313 273 273 c 1,16,17
 297 250 297 250 311.5 219 c 128,-1,18
 326 188 326 188 326 156 c 0,19,20
 326 88 326 88 280 42 c 0,21,22
 263 25 263 25 238 12.5 c 128,-1,23
 213 0 213 0 182 0 c 2,24,-1
 79 0 l 2,25,26
 78 0 78 0 78 0 c 0,27,28
 59 2 59 2 48.5 12.5 c 128,-1,29
 38 23 38 23 35 43 c 0,30,31
 35 43 35 43 35 44 c 2,0,-1
116 408 m 1,32,-1
 116 309 l 1,33,-1
 178 309 l 1,34,35
 198 313 198 313 210.5 325 c 128,-1,36
 223 337 223 337 223 357 c 0,37,38
 223 379 223 379 207 395 c 0,39,40
 195 407 195 407 177 408 c 1,41,-1
 116 408 l 1,32,-1
116 229 m 1,42,-1
 116 81 l 1,43,-1
 177 81 l 2,44,45
 206 81 206 81 224 101 c 0,46,47
 233 111 233 111 238.5 124.5 c 128,-1,48
 244 138 244 138 244 152 c 0,49,50
 244 183 244 183 229 204 c 0,51,52
 215 224 215 224 181 229 c 1,53,-1
 116 229 l 1,42,-1
EndSplineSet
Validated: 1
EndChar

StartChar: c
Encoding: 99 99 68
Width: 361
VWidth: 711
GlyphClass: 2
Flags: W
LayerCount: 2
Fore
SplineSet
254 481 m 0,0,1
 296 456 296 456 316 418 c 0,2,3
 325 400 325 400 325 385 c 0,4,5
 325 367 325 367 310.5 356 c 128,-1,6
 296 345 296 345 282 345 c 0,7,8
 264 345 264 345 251 358 c 0,9,10
 244 365 244 365 240 376 c 0,11,12
 240 377 240 377 239 379 c 128,-1,13
 238 381 238 381 235 386 c 0,14,15
 226 399 226 399 211 408 c 0,16,17
 204 411 204 411 196 411 c 2,18,-1
 166 411 l 2,19,20
 146 411 146 411 132 392 c 0,21,22
 116 369 116 369 116 339 c 2,23,-1
 116 150 l 2,24,25
 116 120 116 120 132 98 c 0,26,27
 139 89 139 89 148 83.5 c 128,-1,28
 157 78 157 78 166 78 c 2,29,-1
 196 78 l 2,30,31
 211 78 211 78 227 93 c 0,32,33
 239 105 239 105 241 117 c 0,34,35
 245 133 245 133 256 140.5 c 128,-1,36
 267 148 267 148 280 148 c 0,37,38
 299 148 299 148 312.5 134.5 c 128,-1,39
 326 121 326 121 326 101 c 0,40,41
 326 85 326 85 307 54 c 0,42,43
 300 43 300 43 290 31 c 0,44,45
 274 12 274 12 251 3 c 128,-1,46
 228 -6 228 -6 203 -6 c 2,47,-1
 161 -6 l 2,48,49
 135 -6 135 -6 112 4 c 0,50,51
 89 15 89 15 72 32.5 c 128,-1,52
 55 50 55 50 45 73.5 c 128,-1,53
 35 97 35 97 35 124 c 2,54,-1
 35 365 l 2,55,56
 35 391 35 391 45 415 c 0,57,58
 55 440 55 440 72 457 c 0,59,60
 110 495 110 495 161 495 c 2,61,-1
 206 495 l 1,62,63
 232 494 232 494 254 481 c 0,0,1
EndSplineSet
Validated: 1
EndChar

StartChar: d
Encoding: 100 100 69
Width: 361
VWidth: 711
GlyphClass: 2
Flags: W
LayerCount: 2
Fore
SplineSet
245 157 m 2,0,-1
 245 336 l 2,1,2
 245 385 245 385 207 403 c 0,3,4
 196 408 196 408 182 408 c 2,5,-1
 116 408 l 1,6,-1
 116 81 l 1,7,-1
 173 81 l 1,8,9
 209 85 209 85 227 103 c 128,-1,10
 245 121 245 121 245 157 c 2,0,-1
182 0 m 2,11,-1
 77 0 l 2,12,13
 75 0 75 0 73 1 c 0,14,15
 57 4 57 4 47.5 13.5 c 128,-1,16
 38 23 38 23 35 43 c 0,17,18
 35 44 35 44 35 44 c 2,19,-1
 35 448 l 2,20,21
 35 449 35 449 35 451 c 0,22,23
 40 469 40 469 50.5 478 c 128,-1,24
 61 487 61 487 80 489 c 0,25,26
 80 489 80 489 81 489 c 2,27,-1
 183 489 l 2,28,29
 184 489 184 489 184 489 c 0,30,31
 212 486 212 486 237 477 c 0,32,33
 265 467 265 467 284 446 c 0,34,35
 304 425 304 425 315 396.5 c 128,-1,36
 326 368 326 368 326 339 c 2,37,-1
 326 160 l 2,38,39
 326 110 326 110 302 69 c 0,40,41
 290 48 290 48 271.5 32.5 c 128,-1,42
 253 17 253 17 229 10 c 0,43,44
 209 3 209 3 183 0 c 0,45,46
 182 0 182 0 182 0 c 2,11,-1
EndSplineSet
Validated: 1
EndChar

StartChar: e
Encoding: 101 101 70
Width: 361
VWidth: 711
GlyphClass: 2
Flags: W
LayerCount: 2
Fore
SplineSet
315 67 m 0,0,1
 326 56 326 56 326 41 c 128,-1,2
 326 26 326 26 315.5 15.5 c 128,-1,3
 305 5 305 5 288 0 c 0,4,5
 288 0 288 0 286 0 c 2,6,-1
 78 0 l 2,7,8
 77 0 77 0 77 0 c 0,9,10
 58 2 58 2 47.5 12.5 c 128,-1,11
 37 23 37 23 35 43 c 0,12,13
 35 44 35 44 35 44 c 2,14,-1
 35 448 l 2,15,16
 35 449 35 449 35 451 c 0,17,18
 40 468 40 468 50 478 c 0,19,20
 60 488 60 488 80 488 c 2,21,-1
 290 488 l 2,22,23
 292 488 292 488 293 487 c 0,24,25
 327 476 327 476 326 447 c 0,26,27
 326 433 326 433 315.5 422.5 c 128,-1,28
 305 412 305 412 287 408 c 0,29,30
 286 408 286 408 286 408 c 2,31,-1
 115 408 l 1,32,-1
 115 293 l 1,33,34
 114 293 114 293 246 293 c 2,35,36
 248 293 248 293 250 292 c 0,37,38
 264 287 264 287 273.5 278 c 128,-1,39
 283 269 283 269 283 254 c 0,40,41
 283 253 283 253 282 252 c 0,42,43
 282 239 282 239 271.5 228 c 128,-1,44
 261 217 261 217 244 212 c 0,45,46
 244 212 244 212 242 212 c 2,47,-1
 115 212 l 1,48,-1
 115 80 l 1,49,50
 116 80 116 80 290 80 c 2,51,52
 291 80 291 80 292 80 c 0,53,54
 307 75 307 75 315 67 c 0,0,1
EndSplineSet
Validated: 33
EndChar

StartChar: f
Encoding: 102 102 71
Width: 361
VWidth: 711
GlyphClass: 2
Flags: W
LayerCount: 2
Fore
SplineSet
115 45 m 0,0,1
 114 24 114 24 102 12 c 128,-1,2
 90 0 90 0 75 0 c 0,3,4
 59 0 59 0 48 11.5 c 128,-1,5
 37 23 37 23 35 43 c 0,6,7
 35 44 35 44 35 44 c 2,8,-1
 35 448 l 2,9,10
 35 449 35 449 35 451 c 0,11,12
 40 468 40 468 50 478 c 128,-1,13
 60 488 60 488 80 488 c 2,14,-1
 290 488 l 2,15,16
 292 488 292 488 293 487 c 0,17,18
 327 476 327 476 326 447 c 0,19,20
 326 433 326 433 315.5 422.5 c 128,-1,21
 305 412 305 412 287 408 c 0,22,23
 286 408 286 408 286 408 c 2,24,-1
 115 408 l 1,25,-1
 115 293 l 1,26,27
 114 293 114 293 246 293 c 2,28,29
 248 293 248 293 250 292 c 0,30,31
 264 287 264 287 273.5 278 c 128,-1,32
 283 269 283 269 283 254 c 0,33,34
 283 253 283 253 282 252 c 0,35,36
 282 239 282 239 271.5 228 c 128,-1,37
 261 217 261 217 244 212 c 0,38,39
 244 212 244 212 242 212 c 2,40,-1
 115 212 l 1,41,-1
 115 46 l 2,42,43
 115 45 115 45 115 45 c 0,0,1
EndSplineSet
Validated: 33
EndChar

StartChar: g
Encoding: 103 103 72
Width: 361
VWidth: 711
GlyphClass: 2
Flags: W
LayerCount: 2
Fore
SplineSet
211 207 m 0,0,1
 192 208 192 208 181 219.5 c 128,-1,2
 170 231 170 231 170 246.5 c 128,-1,3
 170 262 170 262 182 274 c 0,4,5
 194 286 194 286 216 286 c 2,6,-1
 292 286 l 2,7,8
 293 286 293 286 294 286 c 0,9,10
 306 282 306 282 313.5 275 c 128,-1,11
 321 268 321 268 326 257 c 0,12,13
 327 255 327 255 326 253 c 2,14,-1
 326 122 l 2,15,16
 326 96 326 96 317.5 75.5 c 128,-1,17
 309 55 309 55 287 31 c 0,18,19
 254 -6 254 -6 200 -6 c 2,20,-1
 160 -6 l 2,21,22
 134 -6 134 -6 112 4 c 0,23,24
 89 15 89 15 71.5 32.5 c 128,-1,25
 54 50 54 50 44.5 73.5 c 128,-1,26
 35 97 35 97 35 124 c 2,27,-1
 35 365 l 2,28,29
 35 391 35 391 44 415 c 0,30,31
 54 440 54 440 72 457 c 0,32,33
 110 495 110 495 160 495 c 2,34,-1
 202 495 l 2,35,36
 227 495 227 495 249 483 c 0,37,38
 272 471 272 471 288 454.5 c 128,-1,39
 304 438 304 438 313 419.5 c 128,-1,40
 322 401 322 401 322 386 c 0,41,42
 322 367 322 367 308 356 c 128,-1,43
 294 345 294 345 279 345 c 0,44,45
 261 345 261 345 248 358 c 0,46,47
 241 365 241 365 238 373 c 0,48,49
 232 390 232 390 222 398 c 0,50,51
 208 411 208 411 194 411 c 2,52,-1
 166 411 l 2,53,54
 146 411 146 411 132 392 c 0,55,56
 116 369 116 369 115 339 c 2,57,-1
 115 150 l 2,58,59
 115 120 115 120 132 98 c 0,60,61
 139 89 139 89 147.5 83.5 c 128,-1,62
 156 78 156 78 166 78 c 2,63,-1
 193 78 l 1,64,65
 205 80 205 80 212 85 c 0,66,67
 235 101 235 101 241 125 c 0,68,69
 244 137 244 137 246 150 c 2,70,-1
 246 207 l 1,71,-1
 212 207 l 2,72,73
 212 207 212 207 211 207 c 0,0,1
EndSplineSet
Validated: 1
EndChar

StartChar: h
Encoding: 104 104 73
Width: 361
VWidth: 711
GlyphClass: 2
Flags: W
LayerCount: 2
Fore
SplineSet
245 451 m 0,0,1
 250 468 250 468 260.5 478.5 c 128,-1,2
 271 489 271 489 284 489 c 0,3,4
 299 489 299 489 312 477 c 0,5,6
 320 469 320 469 325 456 c 0,7,8
 326 454 326 454 326 452 c 2,9,-1
 326 47 l 2,10,11
 326 25 326 25 313.5 12.5 c 128,-1,12
 301 0 301 0 287 0 c 0,13,14
 272 0 272 0 260.5 11.5 c 128,-1,15
 249 23 249 23 245 42 c 0,16,17
 245 43 245 43 245 44 c 2,18,-1
 245 213 l 1,19,-1
 116 213 l 1,20,-1
 116 47 l 2,21,22
 116 25 116 25 103 12.5 c 128,-1,23
 90 0 90 0 76 0 c 0,24,25
 61 0 61 0 49 11.5 c 128,-1,26
 37 23 37 23 35 43 c 0,27,28
 35 44 35 44 35 44 c 2,29,-1
 35 448 l 2,30,31
 35 449 35 449 35 451 c 0,32,33
 40 469 40 469 51 479 c 128,-1,34
 62 489 62 489 75 489 c 0,35,36
 90 489 90 489 102 477 c 0,37,38
 110 469 110 469 115 456 c 0,39,40
 116 454 116 454 116 452 c 2,41,-1
 116 294 l 1,42,-1
 245 294 l 1,43,-1
 245 448 l 2,44,45
 245 450 245 450 245 451 c 0,0,1
EndSplineSet
Validated: 1
EndChar

StartChar: i
Encoding: 105 105 74
Width: 361
VWidth: 711
GlyphClass: 2
Flags: W
LayerCount: 2
Fore
SplineSet
98 476 m 128,-1,1
 110 488 110 488 130 488 c 2,2,-1
 238 488 l 2,3,4
 240 488 240 488 242 487 c 0,5,6
 276 476 276 476 275 447 c 0,7,8
 275 434 275 434 264 423 c 128,-1,9
 253 412 253 412 237 408 c 0,10,11
 236 408 236 408 234 408 c 2,12,-1
 219 408 l 1,13,-1
 219 80 l 1,14,15
 218 80 218 80 238 80 c 2,16,17
 239 80 239 80 241 80 c 0,18,19
 258 75 258 75 266.5 64.5 c 128,-1,20
 275 54 275 54 275 40.5 c 128,-1,21
 275 27 275 27 264.5 16 c 128,-1,22
 254 5 254 5 237 0 c 0,23,24
 236 0 236 0 234 0 c 2,25,-1
 128 0 l 2,26,27
 127 0 127 0 126 0 c 0,28,29
 107 3 107 3 96.5 15.5 c 128,-1,30
 86 28 86 28 86 42 c 0,31,32
 86 57 86 57 98 68.5 c 128,-1,33
 110 80 110 80 130 80 c 2,34,-1
 140 80 l 1,35,-1
 140 408 l 1,36,-1
 128 408 l 2,37,38
 127 408 127 408 126 408 c 0,39,40
 108 410 108 410 97 421.5 c 128,-1,41
 86 433 86 433 86 448.5 c 128,-1,0
 86 464 86 464 98 476 c 128,-1,1
EndSplineSet
Validated: 33
EndChar

StartChar: j
Encoding: 106 106 75
Width: 361
VWidth: 710
GlyphClass: 2
Flags: W
LayerCount: 2
Fore
SplineSet
36 87 m 0,0,1
 36 105 36 105 47.5 115 c 128,-1,2
 59 125 59 125 74 125 c 0,3,4
 97 125 97 125 110 103 c 0,5,6
 120 88 120 88 138.5 80 c 128,-1,7
 157 72 157 72 177 72 c 0,8,9
 207 72 207 72 225.5 90.5 c 128,-1,10
 244 109 244 109 244 144 c 2,11,-1
 244 446 l 2,12,13
 244 447 244 447 244 449 c 0,14,15
 249 467 249 467 260 477 c 128,-1,16
 271 487 271 487 284 487 c 0,17,18
 300 487 300 487 312 475 c 0,19,20
 320 467 320 467 324 455 c 0,21,22
 325 453 325 453 325 451 c 2,23,-1
 325 147 l 2,24,25
 325 109 325 109 313 81 c 0,26,27
 287 22 287 22 230 3 c 0,28,29
 203 -7 203 -7 174 -7 c 0,30,31
 137 -7 137 -7 102 9 c 0,32,33
 66 26 66 26 43 63 c 0,34,35
 43 63 43 63 40 68 c 0,36,37
 36 76 36 76 36 87 c 0,0,1
EndSplineSet
Validated: 1
EndChar

StartChar: k
Encoding: 107 107 76
Width: 361
VWidth: 711
GlyphClass: 2
Flags: W
LayerCount: 2
Fore
SplineSet
315 69 m 0,0,1
 326 53 326 53 325 38 c 0,2,3
 325 23 325 23 313.5 12 c 128,-1,4
 302 1 302 1 286.5 1 c 128,-1,5
 271 1 271 1 254 17 c 0,6,7
 253 18 253 18 128 186 c 1,8,-1
 115 170 l 1,9,-1
 115 47 l 2,10,11
 115 25 115 25 103 12.5 c 128,-1,12
 91 0 91 0 76 0 c 0,13,14
 60 0 60 0 48.5 12 c 128,-1,15
 37 24 37 24 36 43 c 0,16,17
 36 43 36 43 36 44 c 2,18,-1
 36 448 l 2,19,20
 36 449 36 449 36 451 c 0,21,22
 41 469 41 469 51 479 c 128,-1,23
 61 489 61 489 75 489 c 0,24,25
 90 489 90 489 101 477 c 0,26,27
 109 469 109 469 115 456 c 0,28,29
 115 454 115 454 115 452 c 2,30,-1
 115 298 l 1,31,32
 125 310 125 310 140 329 c 0,33,34
 183 384 183 384 217 426 c 0,35,36
 256 473 256 473 256.5 474 c 128,-1,37
 257 475 257 475 258 475 c 0,38,39
 273 486 273 486 288 487 c 0,40,41
 288 487 288 487 288 487 c 0,42,43
 304 487 304 487 314 476 c 128,-1,44
 324 465 324 465 324 448 c 0,45,46
 324 441 324 441 323 434.5 c 128,-1,47
 322 428 322 428 320 426 c 2,48,-1
 180 250 l 1,49,50
 315 69 315 69 315 69 c 0,0,1
EndSplineSet
Validated: 33
EndChar

StartChar: l
Encoding: 108 108 77
Width: 361
VWidth: 711
GlyphClass: 2
Flags: W
LayerCount: 2
Fore
SplineSet
32 451 m 0,0,1
 37 468 37 468 47.5 478.5 c 128,-1,2
 58 489 58 489 71 489 c 0,3,4
 86 489 86 489 99 477 c 0,5,6
 107 469 107 469 112 456 c 0,7,8
 113 454 113 454 113 452 c 2,9,-1
 113 81 l 1,10,-1
 292 81 l 2,11,12
 294 81 294 81 295 81 c 0,13,14
 311 76 311 76 320 65 c 128,-1,15
 329 54 329 54 329 40.5 c 128,-1,16
 329 27 329 27 318 16 c 128,-1,17
 307 5 307 5 291 0 c 0,18,19
 289 0 289 0 288 0 c 2,20,-1
 76 0 l 2,21,22
 75 0 75 0 75 0 c 0,23,24
 56 2 56 2 45.5 12.5 c 128,-1,25
 35 23 35 23 32 43 c 0,26,27
 32 44 32 44 32 44 c 2,28,-1
 32 448 l 2,29,30
 32 450 32 450 32 451 c 0,0,1
EndSplineSet
Validated: 1
EndChar

StartChar: m
Encoding: 109 109 78
Width: 361
VWidth: 711
GlyphClass: 2
Flags: W
LayerCount: 2
Fore
SplineSet
32 42 m 2,0,-1
 32 449 l 2,1,2
 32 450 32 450 32 452 c 0,3,4
 37 468 37 468 46.5 477.5 c 128,-1,5
 56 487 56 487 71 487 c 0,6,7
 90 487 90 487 106 466 c 0,8,9
 106 465 106 465 181 330 c 1,10,11
 210 385 210 385 254 463 c 0,12,13
 266 487 266 487 290 487 c 0,14,15
 306 487 306 487 317 476 c 0,16,17
 325 468 325 468 329 455 c 0,18,19
 329 454 329 454 329 452 c 2,20,-1
 329 45 l 2,21,22
 329 45 329 45 329 44 c 0,23,24
 328 24 328 24 316.5 13 c 128,-1,25
 305 2 305 2 291 2 c 0,26,27
 274 2 274 2 263.5 12.5 c 128,-1,28
 253 23 253 23 251 41 c 0,29,30
 251 42 251 42 251 42 c 2,31,-1
 251 294 l 1,32,33
 214 227 214 227 213 225 c 0,34,35
 200 209 200 209 183 209 c 128,-1,36
 166 209 166 209 151 222 c 0,37,38
 149 223 149 223 148 225 c 0,39,40
 134 252 134 252 125 269 c 128,-1,41
 116 286 116 286 111 295 c 1,42,-1
 111 45 l 2,43,44
 111 45 111 45 111 44 c 0,45,46
 110 24 110 24 98.5 13 c 128,-1,47
 87 2 87 2 73 2 c 0,48,49
 56 2 56 2 45 12.5 c 128,-1,50
 34 23 34 23 32 41 c 0,51,52
 32 41 32 41 32 42 c 2,0,-1
EndSplineSet
Validated: 1
EndChar

StartChar: n
Encoding: 110 110 79
Width: 361
VWidth: 711
GlyphClass: 2
Flags: W
LayerCount: 2
Fore
SplineSet
32 42 m 2,0,-1
 32 449 l 2,1,2
 32 450 32 450 32 452 c 0,3,4
 37 468 37 468 46.5 477.5 c 128,-1,5
 56 487 56 487 71 487 c 0,6,7
 90 487 90 487 106 466 c 0,8,9
 106 465 106 465 251 197 c 1,10,-1
 251 449 l 2,11,12
 251 450 251 450 251 451 c 0,13,14
 255 468 255 468 265.5 477.5 c 128,-1,15
 276 487 276 487 289 487 c 0,16,17
 305 487 305 487 317 476 c 0,18,19
 325 468 325 468 329 455 c 0,20,21
 329 454 329 454 329 452 c 2,22,-1
 329 45 l 2,23,24
 329 45 329 45 329 44 c 0,25,26
 328 24 328 24 317 13 c 128,-1,27
 306 2 306 2 290 2 c 128,-1,28
 274 2 274 2 259 17 c 0,29,30
 258 18 258 18 257 19 c 2,31,-1
 111 292 l 1,32,-1
 111 45 l 2,33,34
 111 45 111 45 111 44 c 0,35,36
 110 24 110 24 98.5 13 c 128,-1,37
 87 2 87 2 73 2 c 0,38,39
 56 2 56 2 45 12.5 c 128,-1,40
 34 23 34 23 32 41 c 0,41,42
 32 41 32 41 32 42 c 2,0,-1
EndSplineSet
Validated: 1
EndChar

StartChar: o
Encoding: 111 111 80
Width: 361
VWidth: 711
GlyphClass: 2
Flags: W
LayerCount: 2
Fore
SplineSet
245 365 m 2,0,1
 245 393 245 393 225 409 c 0,2,3
 216 416 216 416 204 416 c 2,4,-1
 183 416 l 1,5,-1
 171 416 l 1,6,-1
 165 416 l 1,7,-1
 163 416 l 1,8,-1
 151 416 l 1,9,10
 144 414 144 414 140 411 c 0,11,12
 131 403 131 403 126 396 c 0,13,14
 116 380 116 380 116 361 c 2,15,-1
 116 144 l 2,16,17
 116 132 116 132 116.5 121 c 128,-1,18
 117 110 117 110 122 99 c 0,19,20
 131 81 131 81 143 77 c 0,21,22
 158 72 158 72 176 72 c 2,23,-1
 200 72 l 2,24,25
 209 73 209 73 216 75 c 0,26,27
 225 78 225 78 232 85 c 128,-1,28
 239 92 239 92 241.5 103 c 128,-1,29
 244 114 244 114 245 128 c 2,30,-1
 245 365 l 2,0,1
326 132 m 2,31,32
 326 132 326 132 325 119 c 0,33,34
 324 90 324 90 314 67 c 0,35,36
 302 37 302 37 279 18 c 0,37,38
 262 5 262 5 243.5 -0.5 c 128,-1,39
 225 -6 225 -6 205 -7 c 0,40,41
 205 -7 205 -7 204 -7 c 2,42,-1
 186 -7 l 2,43,44
 149 -7 149 -7 117 2 c 0,45,46
 83 11 83 11 59 46 c 0,47,48
 45 66 45 66 40.5 92.5 c 128,-1,49
 36 119 36 119 35 144 c 1,50,-1
 35 365 l 2,51,52
 35 387 35 387 43 408 c 0,53,54
 59 452 59 452 96 477 c 0,55,56
 115 490 115 490 137 494 c 0,57,58
 150 497 150 497 170 497 c 2,59,-1
 207 497 l 1,60,61
 231 496 231 496 252 485 c 0,62,63
 300 461 300 461 317 414 c 0,64,65
 326 391 326 391 326 368 c 2,66,-1
 326 132 l 2,31,32
EndSplineSet
Validated: 1
EndChar

StartChar: p
Encoding: 112 112 81
Width: 361
VWidth: 711
GlyphClass: 2
Flags: W
LayerCount: 2
Fore
SplineSet
116 46 m 0,0,1
 115 24 115 24 102.5 12 c 128,-1,2
 90 0 90 0 76 0 c 0,3,4
 61 0 61 0 49 11.5 c 128,-1,5
 37 23 37 23 35 43 c 0,6,7
 35 44 35 44 35 44 c 2,8,-1
 35 448 l 2,9,10
 35 449 35 449 35 451 c 0,11,12
 40 469 40 469 50.5 478.5 c 128,-1,13
 61 488 61 488 81 488 c 2,14,-1
 201 488 l 2,15,16
 224 488 224 488 252 473 c 0,17,18
 289 451 289 451 307.5 415.5 c 128,-1,19
 326 380 326 380 326 342.5 c 128,-1,20
 326 305 326 305 307 271 c 0,21,22
 288 236 288 236 249 217 c 0,23,24
 225 204 225 204 199 202 c 0,25,26
 199 202 199 202 198 202 c 2,27,-1
 116 202 l 1,28,-1
 116 47 l 2,29,30
 116 46 116 46 116 46 c 0,0,1
191 284 m 2,31,32
 212 284 212 284 229 301 c 0,33,34
 245 317 245 317 245 343 c 0,35,36
 245 371 245 371 224 393 c 0,37,38
 219 398 219 398 212 403 c 0,39,40
 199 408 199 408 193 408 c 2,41,-1
 116 408 l 1,42,-1
 116 284 l 1,43,-1
 191 284 l 2,31,32
EndSplineSet
Validated: 1
EndChar

StartChar: q
Encoding: 113 113 82
Width: 361
VWidth: 711
GlyphClass: 2
Flags: W
LayerCount: 2
Fore
SplineSet
180 79 m 0,0,1
 173 92 173 92 173 106 c 0,2,3
 173 120 173 120 183.5 131 c 128,-1,4
 194 142 194 142 210.5 142 c 128,-1,5
 227 142 227 142 239 130 c 0,6,7
 242 128 242 128 244 125 c 1,8,9
 244 127 244 127 245 129 c 2,10,-1
 245 365 l 2,11,12
 245 376 245 376 241 387 c 0,13,14
 240 388 240 388 240 389 c 0,15,16
 235 401 235 401 225.5 408.5 c 128,-1,17
 216 416 216 416 204 416 c 2,18,-1
 151 416 l 1,19,20
 144 414 144 414 140 411 c 0,21,22
 131 403 131 403 126 396 c 0,23,24
 116 380 116 380 116 361 c 2,25,-1
 116 144 l 2,26,27
 116 99 116 99 133 84 c 0,28,29
 146 72 146 72 176 72 c 2,30,-1
 187 72 l 1,31,32
 181 78 181 78 180 79 c 0,0,1
254 3 m 1,33,34
 230 -7 230 -7 204 -7 c 2,35,-1
 186 -7 l 2,36,37
 111 -7 111 -7 74 29 c 0,38,39
 58 45 58 45 46.5 72.5 c 128,-1,40
 35 100 35 100 35 144 c 2,41,-1
 35 365 l 2,42,43
 35 393 35 393 46 417 c 128,-1,44
 57 441 57 441 74.5 458.5 c 128,-1,45
 92 476 92 476 117 486.5 c 128,-1,46
 142 497 142 497 170 497 c 2,47,-1
 207 497 l 2,48,49
 207 497 207 497 208 497 c 0,50,51
 232 495 232 495 252 485 c 0,52,53
 296 463 296 463 316 416 c 0,54,55
 326 394 326 394 326 368 c 2,56,-1
 326 132 l 2,57,58
 326 132 326 132 325 117 c 0,59,60
 323 82 323 82 311 58 c 1,61,62
 320 44 320 44 320 29.5 c 128,-1,63
 320 15 320 15 309 4 c 128,-1,64
 298 -7 298 -7 283 -7 c 128,-1,65
 268 -7 268 -7 254 3 c 1,33,34
325 119 m 129,-1,67
 325 119 325 119 325 119 c 129,-1,66
 325 119 325 119 325 119 c 129,-1,67
EndSplineSet
Validated: 1
EndChar

StartChar: r
Encoding: 114 114 83
Width: 361
VWidth: 711
GlyphClass: 2
Flags: W
LayerCount: 2
Fore
SplineSet
325 41 m 2,0,1
 325 22 325 22 314 11 c 128,-1,2
 303 0 303 0 286.5 0 c 128,-1,3
 270 0 270 0 254 15 c 0,4,5
 253 16 253 16 238.5 39.5 c 128,-1,6
 224 63 224 63 191 110.5 c 128,-1,7
 158 158 158 158 130 202 c 1,8,-1
 116 202 l 1,9,-1
 116 46 l 2,10,11
 116 46 116 46 116 45 c 0,12,13
 115 23 115 23 102.5 11.5 c 128,-1,14
 90 0 90 0 76 0 c 0,15,16
 61 0 61 0 49 11.5 c 128,-1,17
 37 23 37 23 35 43 c 0,18,19
 35 44 35 44 35 44 c 2,20,-1
 35 448 l 2,21,22
 35 449 35 449 35 451 c 0,23,24
 40 469 40 469 50.5 478.5 c 128,-1,25
 61 488 61 488 81 488 c 2,26,-1
 201 488 l 2,27,28
 224 488 224 488 252 473 c 0,29,30
 289 451 289 451 307.5 415.5 c 128,-1,31
 326 380 326 380 326 343 c 0,32,33
 326 320 326 320 319 298 c 0,34,35
 309 267 309 267 285 242 c 0,36,37
 258 215 258 215 224 207 c 1,38,-1
 322 59 l 2,39,40
 325 55 325 55 325 47 c 2,41,-1
 325 41 l 2,0,1
191 284 m 2,42,43
 205 284 205 284 214 289 c 0,44,45
 235 301 235 301 242 323 c 0,46,47
 245 334 245 334 245 343 c 128,-1,48
 245 352 245 352 241 364 c 0,49,50
 234 388 234 388 214 402 c 0,51,52
 205 408 205 408 193 408 c 2,53,-1
 116 408 l 1,54,-1
 116 284 l 1,55,-1
 191 284 l 2,42,43
EndSplineSet
Validated: 1
EndChar

StartChar: s
Encoding: 115 115 84
Width: 361
VWidth: 711
GlyphClass: 2
Flags: W
LayerCount: 2
Fore
SplineSet
178 79 m 2,0,1
 178 79 178 79 182 79 c 0,2,3
 197 79 197 79 206.5 84 c 128,-1,4
 216 89 216 89 221 94 c 0,5,6
 235 108 235 108 240.5 122 c 128,-1,7
 246 136 246 136 246 148 c 128,-1,8
 246 160 246 160 242 172 c 0,9,10
 235 194 235 194 225 203.5 c 128,-1,11
 215 213 215 213 202 216 c 128,-1,12
 189 219 189 219 171.5 219.5 c 128,-1,13
 154 220 154 220 136 227 c 0,14,15
 116 233 116 233 100 243.5 c 128,-1,16
 84 254 84 254 76.5 261.5 c 128,-1,17
 69 269 69 269 65 274 c 0,18,19
 34 311 34 311 35 353 c 0,20,21
 35 399 35 399 75 439 c 0,22,23
 100 464 100 464 129 475.5 c 128,-1,24
 158 487 158 487 182 487 c 0,25,26
 214 487 214 487 244 473 c 0,27,28
 275 458 275 458 298 427 c 0,29,30
 298 427 298 427 298 426 c 0,31,32
 309 410 309 410 308 396 c 0,33,34
 308 381 308 381 296 370 c 0,35,36
 284 359 284 359 270 359 c 0,37,38
 262 359 262 359 252 364 c 128,-1,39
 242 369 242 369 237.5 373.5 c 128,-1,40
 233 378 233 378 231 381 c 0,41,42
 225 390 225 390 212 398 c 0,43,44
 200 406 200 406 184 407 c 0,45,46
 174 407 174 407 161 403 c 0,47,48
 135 393 135 393 122 372 c 0,49,50
 116 362 116 362 115 350 c 0,51,52
 115 330 115 330 126 321 c 0,53,54
 145 304 145 304 194 299 c 0,55,56
 216 297 216 297 232 291 c 0,57,58
 272 274 272 274 300 234 c 0,59,60
 327 195 327 195 326 150 c 0,61,62
 326 119 326 119 315 92 c 0,63,64
 291 35 291 35 240 10 c 0,65,66
 212 -2 212 -2 182 -2 c 0,67,68
 141 -2 141 -2 111 17 c 0,69,70
 82 35 82 35 60 63 c 0,71,72
 59 64 59 64 58 65 c 0,73,74
 52 78 52 78 53 88 c 0,75,76
 53 105 53 105 63.5 115.5 c 128,-1,77
 74 126 74 126 87.5 126 c 128,-1,78
 101 126 101 126 110 120.5 c 128,-1,79
 119 115 119 115 125.5 108 c 128,-1,80
 132 101 132 101 140 95 c 128,-1,81
 148 89 148 89 158.5 84 c 128,-1,82
 169 79 169 79 178 79 c 2,0,1
EndSplineSet
Validated: 33
EndChar

StartChar: t
Encoding: 116 116 85
Width: 361
VWidth: 711
GlyphClass: 2
Flags: W
LayerCount: 2
Fore
SplineSet
318 475 m 0,0,1
 329 464 329 464 329 449 c 0,2,3
 329 433 329 433 319 423 c 128,-1,4
 309 413 309 413 294 408 c 0,5,6
 292 408 292 408 291 408 c 2,7,-1
 220 408 l 1,8,-1
 220 45 l 2,9,10
 220 45 220 45 220 44 c 0,11,12
 219 24 219 24 207 13 c 128,-1,13
 195 2 195 2 181 2 c 0,14,15
 165 2 165 2 154.5 12.5 c 128,-1,16
 144 23 144 23 141 40 c 0,17,18
 141 41 141 41 141 42 c 2,19,-1
 141 408 l 1,20,-1
 73 408 l 2,21,22
 72 408 72 408 72 408 c 0,23,24
 53 410 53 410 42.5 422 c 128,-1,25
 32 434 32 434 32 448.5 c 128,-1,26
 32 463 32 463 43.5 474.5 c 128,-1,27
 55 486 55 486 74 487 c 0,28,29
 74 487 74 487 75 487 c 2,30,-1
 294 487 l 2,31,32
 296 487 296 487 297 487 c 0,33,34
 310 483 310 483 318 475 c 0,0,1
EndSplineSet
Validated: 1
EndChar

StartChar: u
Encoding: 117 117 86
Width: 361
VWidth: 710
GlyphClass: 2
Flags: W
LayerCount: 2
Fore
SplineSet
245 449 m 0,0,1
 250 466 250 466 260.5 476.5 c 128,-1,2
 271 487 271 487 284 487 c 0,3,4
 300 487 300 487 313 475 c 0,5,6
 321 467 321 467 325 453 c 0,7,8
 326 452 326 452 326 450 c 2,9,-1
 326 118 l 2,10,11
 326 118 326 118 326 117 c 0,12,13
 324 88 324 88 314 65 c 0,14,15
 302 36 302 36 279 17 c 0,16,17
 249 -7 249 -7 205 -9 c 0,18,19
 205 -9 205 -9 204 -9 c 2,20,-1
 186 -9 l 2,21,22
 149 -9 149 -9 117 0 c 0,23,24
 83 9 83 9 59 44 c 0,25,26
 35 79 35 79 35 142 c 2,27,-1
 35 446 l 2,28,29
 35 447 35 447 35 449 c 0,30,31
 40 467 40 467 51 477 c 128,-1,32
 62 487 62 487 75 487 c 0,33,34
 91 487 91 487 103 475 c 0,35,36
 111 467 111 467 115 453 c 0,37,38
 116 451 116 451 116 450 c 2,39,-1
 116 142 l 2,40,41
 116 130 116 130 116.5 118.5 c 128,-1,42
 117 107 117 107 121 98 c 0,43,44
 129 80 129 80 142 75 c 0,45,46
 157 70 157 70 176 70 c 2,47,-1
 200 70 l 2,48,49
 209 71 209 71 216 73 c 0,50,51
 225 76 225 76 232 83 c 128,-1,52
 239 90 239 90 241.5 101 c 128,-1,53
 244 112 244 112 245 126 c 2,54,-1
 245 446 l 2,55,56
 245 448 245 448 245 449 c 0,0,1
EndSplineSet
Validated: 1
EndChar

StartChar: v
Encoding: 118 118 87
Width: 361
VWidth: 711
GlyphClass: 2
Flags: W
LayerCount: 2
Fore
SplineSet
254 463 m 0,0,1
 268 487 268 487 292 487 c 0,2,3
 307 487 307 487 317.5 474.5 c 128,-1,4
 328 462 328 462 328 442 c 0,5,6
 328 441 328 441 314 389 c 0,7,8
 298 330 298 330 258.5 181 c 128,-1,9
 219 32 219 32 219 31 c 0,10,11
 206 2 206 2 180 2 c 0,12,13
 165 2 165 2 154 13 c 0,14,15
 148 19 148 19 143 29 c 0,16,17
 143 30 143 30 129.5 81 c 128,-1,18
 116 132 116 132 88 233 c 1,19,20
 73 338 73 338 34 436 c 0,21,22
 33 440 33 440 33 445 c 0,23,24
 33 464 33 464 45 475.5 c 128,-1,25
 57 487 57 487 70 487 c 0,26,27
 88 487 88 487 99 475 c 0,28,29
 107 467 107 467 110 454 c 2,30,-1
 180 192 l 1,31,32
 251 459 251 459 254 463 c 0,0,1
EndSplineSet
Validated: 1
EndChar

StartChar: w
Encoding: 119 119 88
Width: 361
VWidth: 711
GlyphClass: 2
Flags: W
LayerCount: 2
Fore
SplineSet
32 452 m 0,0,1
 36 467 36 467 46.5 477 c 128,-1,2
 57 487 57 487 71 487 c 0,3,4
 88 487 88 487 99 476 c 0,5,6
 107 468 107 468 111 455 c 0,7,8
 111 454 111 454 111 452 c 2,9,-1
 111 194 l 1,10,11
 142 251 142 251 145 257 c 0,12,13
 159 278 159 278 179.5 278 c 128,-1,14
 200 278 200 278 214 258 c 0,15,16
 214 258 214 258 251 193 c 1,17,-1
 251 447 l 2,18,19
 251 448 251 448 251 449 c 0,20,21
 255 466 255 466 265.5 476 c 128,-1,22
 276 486 276 486 289 486 c 0,23,24
 305 486 305 486 317 474 c 0,25,26
 325 466 325 466 329 453 c 0,27,28
 329 452 329 452 329 450 c 2,29,-1
 329 45 l 2,30,31
 329 45 329 45 329 44 c 0,32,33
 328 24 328 24 317 13 c 128,-1,34
 306 2 306 2 290 2 c 0,35,36
 273 2 273 2 259 17 c 0,37,38
 258 18 258 18 247 38 c 0,39,40
 220 89 220 89 180 157 c 1,41,42
 164 127 164 127 134.5 73.5 c 128,-1,43
 105 20 105 20 104 19 c 0,44,45
 91 2 91 2 72 2 c 0,46,47
 55 2 55 2 44.5 12.5 c 128,-1,48
 34 23 34 23 32 41 c 0,49,50
 32 41 32 41 32 42 c 2,51,-1
 32 449 l 2,52,53
 32 451 32 451 32 452 c 0,0,1
EndSplineSet
Validated: 1
EndChar

StartChar: x
Encoding: 120 120 89
Width: 361
VWidth: 711
GlyphClass: 2
Flags: W
LayerCount: 2
Fore
SplineSet
33 449 m 0,0,1
 33 465 33 465 44 476 c 128,-1,2
 55 487 55 487 70 487 c 0,3,4
 92 487 92 487 106 466 c 0,5,6
 106 466 106 466 181 327 c 1,7,8
 217 395 217 395 254 463 c 0,9,10
 268 487 268 487 291 487 c 0,11,12
 306 487 306 487 317 476 c 128,-1,13
 328 465 328 465 328 449 c 0,14,15
 328 442 328 442 326 435.5 c 128,-1,16
 324 429 324 429 324 428 c 0,17,18
 296 375 296 375 272 331 c 0,19,20
 247 284 247 284 225 244 c 1,21,-1
 325 59 l 2,22,23
 326 57 326 57 327 51 c 128,-1,24
 328 45 328 45 328 41 c 0,25,26
 328 24 328 24 317 13 c 128,-1,27
 306 2 306 2 291 2 c 0,28,29
 272 2 272 2 258 17 c 0,30,31
 257 18 257 18 227.5 74 c 128,-1,32
 198 130 198 130 181 162 c 1,33,34
 105 21 105 21 104 19 c 0,35,36
 97 10 97 10 88 6 c 128,-1,37
 79 2 79 2 70 2 c 0,38,39
 55 2 55 2 44.5 13 c 128,-1,40
 34 24 34 24 34 42 c 2,41,-1
 34 52 l 2,42,43
 34 55 34 55 35 57 c 0,44,45
 61 105 61 105 86 152 c 128,-1,46
 111 199 111 199 137 245 c 1,47,-1
 89 333 l 2,48,49
 63 380 63 380 39 426 c 0,50,51
 33 437 33 437 33 449 c 0,0,1
EndSplineSet
Validated: 1
EndChar

StartChar: y
Encoding: 121 121 90
Width: 361
VWidth: 711
GlyphClass: 2
Flags: W
LayerCount: 2
Fore
SplineSet
70 486 m 0,0,1
 93 486 93 486 106 466 c 0,2,3
 106 466 106 466 181 324 c 1,4,-1
 212 385 l 2,5,6
 232 425 232 425 254 463 c 0,7,8
 268 486 268 486 291 486 c 0,9,10
 306 486 306 486 317 475 c 128,-1,11
 328 464 328 464 328 448 c 0,12,13
 328 440 328 440 326 434.5 c 128,-1,14
 324 429 324 429 324 428 c 0,15,16
 300 384 300 384 220 230 c 1,17,-1
 220 44 l 2,18,19
 220 44 220 44 220 43 c 0,20,21
 219 23 219 23 207 12.5 c 128,-1,22
 195 2 195 2 181 2 c 0,23,24
 165 2 165 2 154.5 12.5 c 128,-1,25
 144 23 144 23 141 40 c 0,26,27
 141 41 141 41 141 42 c 2,28,-1
 141 228 l 1,29,30
 88 327 88 327 39 426 c 0,31,32
 33 437 33 437 33 451 c 0,33,34
 33 465 33 465 44 475.5 c 128,-1,35
 55 486 55 486 70 486 c 0,0,1
EndSplineSet
Validated: 1
EndChar

StartChar: z
Encoding: 122 122 91
Width: 361
VWidth: 711
GlyphClass: 2
Flags: W
LayerCount: 2
Fore
SplineSet
44 475 m 128,-1,1
 56 487 56 487 75 487 c 2,2,-1
 294 487 l 2,3,4
 296 487 296 487 297 486 c 0,5,6
 328 476 328 476 328 449 c 0,7,8
 328 442 328 442 326 435.5 c 128,-1,9
 324 429 324 429 324 428 c 0,10,11
 276 336 276 336 229 250 c 128,-1,12
 182 164 182 164 138 81 c 1,13,-1
 294 81 l 2,14,15
 296 81 296 81 297 81 c 0,16,17
 313 76 313 76 321 64.5 c 128,-1,18
 329 53 329 53 329 40 c 0,19,20
 329 26 329 26 319 16 c 128,-1,21
 309 6 309 6 293 2 c 0,22,23
 292 2 292 2 291 2 c 2,24,-1
 73 2 l 2,25,26
 72 2 72 2 72 2 c 0,27,28
 54 4 54 4 44 14.5 c 128,-1,29
 34 25 34 25 34 42 c 2,30,31
 34 43 34 43 34 47 c 1,32,-1
 34 52 l 2,33,34
 34 55 34 55 35 57 c 0,35,36
 85 149 85 149 131.5 236.5 c 128,-1,37
 178 324 178 324 224 408 c 1,38,-1
 73 408 l 2,39,40
 72 408 72 408 72 408 c 0,41,42
 52 410 52 410 42 422 c 128,-1,43
 32 434 32 434 32 448.5 c 128,-1,0
 32 463 32 463 44 475 c 128,-1,1
EndSplineSet
Validated: 1
EndChar

StartChar: exclamdown
Encoding: 161 161 92
Width: 425
GlyphClass: 2
Flags: W
LayerCount: 2
Fore
SplineSet
188 502 m 2,0,1
 205 515 205 515 222 515 c 256,2,3
 239 515 239 515 250 504 c 128,-1,4
 261 493 261 493 261 476 c 0,5,6
 261 463 261 463 251 449.5 c 128,-1,7
 241 436 241 436 227 423 c 128,-1,8
 213 410 213 410 197 397.5 c 128,-1,9
 181 385 181 385 169 375 c 1,10,-1
 374 375 l 1,11,12
 392 369 392 369 401 357.5 c 128,-1,13
 410 346 410 346 410 333 c 0,14,15
 410 319 410 319 400 307 c 128,-1,16
 390 295 390 295 370 291 c 1,17,-1
 168 291 l 1,18,19
 180 280 180 280 196.5 267 c 128,-1,20
 213 254 213 254 227 241 c 128,-1,21
 241 228 241 228 251 214.5 c 128,-1,22
 261 201 261 201 261 188 c 0,23,24
 261 171 261 171 250 160.5 c 128,-1,25
 239 150 239 150 222 150 c 0,26,27
 216 150 216 150 209.5 151 c 128,-1,28
 203 152 203 152 196 156 c 2,29,-1
 33 299 l 2,30,31
 16 315 16 315 16 333 c 0,32,33
 16 345 16 345 25 360 c 1,34,-1
 188 502 l 2,0,1
EndSplineSet
Validated: 1
EndChar

StartChar: cent
Encoding: 162 162 93
Width: 425
GlyphClass: 2
Flags: W
LayerCount: 2
Fore
SplineSet
401 357 m 1,0,1
 410 342 410 342 410 330 c 0,2,3
 410 313 410 313 393 296 c 0,4,5
 351 261 351 261 311 225 c 128,-1,6
 271 189 271 189 230 153 c 0,7,8
 222 149 222 149 216 148 c 128,-1,9
 210 147 210 147 204 147 c 0,10,11
 187 147 187 147 175.5 157.5 c 128,-1,12
 164 168 164 168 164 185 c 0,13,14
 164 198 164 198 174 211.5 c 128,-1,15
 184 225 184 225 198.5 238 c 128,-1,16
 213 251 213 251 229 264 c 128,-1,17
 245 277 245 277 258 288 c 1,18,-1
 55 288 l 1,19,20
 35 292 35 292 25 304 c 128,-1,21
 15 316 15 316 15 330 c 0,22,23
 15 343 15 343 24 354.5 c 128,-1,24
 33 366 33 366 52 372 c 1,25,-1
 257 372 l 1,26,27
 245 382 245 382 228.5 394.5 c 128,-1,28
 212 407 212 407 198 420 c 128,-1,29
 184 433 184 433 174 446.5 c 128,-1,30
 164 460 164 460 164 473 c 0,31,32
 164 490 164 490 175.5 501 c 128,-1,33
 187 512 187 512 204 512 c 256,34,35
 221 512 221 512 237 499 c 2,36,-1
 401 357 l 1,0,1
EndSplineSet
Validated: 1
EndChar

StartChar: sterling
Encoding: 163 163 94
Width: 425
GlyphClass: 2
Flags: W
LayerCount: 2
Fore
SplineSet
407 207 m 2,0,1
 407 111 407 111 358 49 c 0,2,3
 311 -13 311 -13 211 -13 c 0,4,5
 117 -13 117 -13 70 48 c 0,6,7
 22 108 22 108 19 201 c 2,8,-1
 19 448 l 2,9,10
 19 551 19 551 68 615 c 0,11,12
 115 679 115 679 211 679 c 0,13,14
 310 679 310 679 357 617 c 0,15,16
 380 585 380 585 392.5 543.5 c 128,-1,17
 405 502 405 502 407 451 c 2,18,-1
 407 207 l 2,0,1
320 432 m 2,19,20
 318 491 318 491 295 539 c 0,21,22
 268 591 268 591 213 591 c 0,23,24
 152 591 152 591 128 537 c 0,25,26
 106 490 106 490 106 429 c 2,27,-1
 106 225 l 2,28,29
 106 199 106 199 112 174 c 128,-1,30
 118 149 118 149 129 126 c 0,31,32
 154 74 154 74 213 74 c 0,33,34
 269 74 269 74 296 126 c 0,35,36
 320 175 320 175 320 229 c 2,37,-1
 320 432 l 2,19,20
EndSplineSet
Validated: 1
EndChar

StartChar: currency
Encoding: 164 164 95
Width: 34
GlyphClass: 2
Flags: W
LayerCount: 2
Fore
SplineSet
-28 7 m 256,0,1
 -28 24 -28 24 -15.5 36.5 c 128,-1,2
 -3 49 -3 49 14 49 c 0,3,4
 32 49 32 49 44 36.5 c 128,-1,5
 56 24 56 24 56 7 c 256,6,7
 56 -10 56 -10 44 -23 c 128,-1,8
 32 -36 32 -36 14 -36 c 0,9,10
 -3 -36 -3 -36 -15.5 -23 c 128,-1,11
 -28 -10 -28 -10 -28 7 c 256,0,1
EndSplineSet
Validated: 1
EndChar

StartChar: yen
Encoding: 165 165 96
Width: 34
GlyphClass: 2
Flags: W
LayerCount: 2
Fore
SplineSet
5 -66 m 1,0,-1
 -46 -66 l 1,1,-1
 -20 48 l 1,2,-1
 57 48 l 1,3,-1
 5 -66 l 1,0,-1
EndSplineSet
Validated: 1
EndChar

StartChar: degree
Encoding: 176 176 97
Width: 425
GlyphClass: 2
Flags: W
LayerCount: 2
Fore
SplineSet
119 667 m 0,0,1
 139 667 139 667 157 657.5 c 128,-1,2
 175 648 175 648 188.5 632 c 128,-1,3
 202 616 202 616 209.5 594.5 c 128,-1,4
 217 573 217 573 217 549 c 0,5,6
 217 524 217 524 209.5 502.5 c 128,-1,7
 202 481 202 481 188.5 465 c 128,-1,8
 175 449 175 449 157 439.5 c 128,-1,9
 139 430 139 430 119 430 c 0,10,11
 98 430 98 430 80 439.5 c 128,-1,12
 62 449 62 449 48.5 465 c 128,-1,13
 35 481 35 481 27.5 502.5 c 128,-1,14
 20 524 20 524 20 549 c 0,15,16
 20 573 20 573 27.5 594.5 c 128,-1,17
 35 616 35 616 48.5 632 c 128,-1,18
 62 648 62 648 80 657.5 c 128,-1,19
 98 667 98 667 119 667 c 0,0,1
119 591 m 0,20,21
 109 591 109 591 101 579 c 128,-1,22
 93 567 93 567 93 549 c 0,23,24
 93 532 93 532 101 519 c 128,-1,25
 109 506 109 506 119 506 c 0,26,27
 128 506 128 506 136 519 c 128,-1,28
 144 532 144 532 144 549 c 0,29,30
 144 567 144 567 136 579 c 128,-1,31
 128 591 128 591 119 591 c 0,20,21
EndSplineSet
Validated: 1
EndChar

StartChar: quotedblleft
Encoding: 8220 8220 100
Width: 425
GlyphClass: 2
Flags: W
LayerCount: 2
Fore
SplineSet
188 502 m 2,0,1
 205 515 205 515 222 515 c 256,2,3
 239 515 239 515 250 504 c 128,-1,4
 261 493 261 493 261 476 c 0,5,6
 261 463 261 463 251 449.5 c 128,-1,7
 241 436 241 436 227 423 c 128,-1,8
 213 410 213 410 197 397.5 c 128,-1,9
 181 385 181 385 169 375 c 1,10,-1
 374 375 l 1,11,12
 392 369 392 369 401 357.5 c 128,-1,13
 410 346 410 346 410 333 c 0,14,15
 410 319 410 319 400 307 c 128,-1,16
 390 295 390 295 370 291 c 1,17,-1
 168 291 l 1,18,19
 180 280 180 280 196.5 267 c 128,-1,20
 213 254 213 254 227 241 c 128,-1,21
 241 228 241 228 251 214.5 c 128,-1,22
 261 201 261 201 261 188 c 0,23,24
 261 171 261 171 250 160.5 c 128,-1,25
 239 150 239 150 222 150 c 0,26,27
 216 150 216 150 209.5 151 c 128,-1,28
 203 152 203 152 196 156 c 2,29,-1
 33 299 l 2,30,31
 16 315 16 315 16 333 c 0,32,33
 16 345 16 345 25 360 c 1,34,-1
 188 502 l 2,0,1
EndSplineSet
Validated: 1
EndChar

StartChar: quotedblright
Encoding: 8221 8221 101
Width: 425
GlyphClass: 2
Flags: W
LayerCount: 2
Fore
SplineSet
401 357 m 1,0,1
 410 342 410 342 410 330 c 0,2,3
 410 313 410 313 393 296 c 0,4,5
 351 261 351 261 311 225 c 128,-1,6
 271 189 271 189 230 153 c 0,7,8
 222 149 222 149 216 148 c 128,-1,9
 210 147 210 147 204 147 c 0,10,11
 187 147 187 147 175.5 157.5 c 128,-1,12
 164 168 164 168 164 185 c 0,13,14
 164 198 164 198 174 211.5 c 128,-1,15
 184 225 184 225 198.5 238 c 128,-1,16
 213 251 213 251 229 264 c 128,-1,17
 245 277 245 277 258 288 c 1,18,-1
 55 288 l 1,19,20
 35 292 35 292 25 304 c 128,-1,21
 15 316 15 316 15 330 c 0,22,23
 15 343 15 343 24 354.5 c 128,-1,24
 33 366 33 366 52 372 c 1,25,-1
 257 372 l 1,26,27
 245 382 245 382 228.5 394.5 c 128,-1,28
 212 407 212 407 198 420 c 128,-1,29
 184 433 184 433 174 446.5 c 128,-1,30
 164 460 164 460 164 473 c 0,31,32
 164 490 164 490 175.5 501 c 128,-1,33
 187 512 187 512 204 512 c 256,34,35
 221 512 221 512 237 499 c 2,36,-1
 401 357 l 1,0,1
EndSplineSet
Validated: 1
EndChar

StartChar: ecircumflex
Encoding: 234 234 102
Width: 425
Flags: W
LayerCount: 2
Fore
SplineSet
238 581 m 1,0,1
 238 581 238 581 84 581 c 1,2,-1
 84 84 l 1,3,-1
 244 84 l 1,4,-1
 388 84 l 1,5,-1
 388 581 l 1,6,-1
 238 581 l 1,0,1
237 665 m 1,7,8
 423.826092733 665.999070015 423.826092733 665.999070015 425 665 c 2,9,10
 425 665 425 665 472 625 c 1,11,12
 472 43 472 43 472 43 c 1,13,14
 428 0 428 0 428 0 c 1,15,16
 260 0 260 0 236.5 0 c 129,-1,17
 213 0 213 0 43 0 c 1,18,19
 43 0 43 0 0 43 c 1,20,21
 0 625 0 625 0 625 c 1,22,23
 47 665 47 665 47 665 c 130,-1,24
 47 665 47 665 193 665 c 1,25,-1
 237 665 l 1,7,8
EndSplineSet
EndChar

StartChar: edieresis
Encoding: 235 235 103
Width: 1000
LayerCount: 2
Fore
SplineSet
1 744 m 5,0,-1
 530 744 l 5,1,-1
 530 -18 l 5,2,-1
 1 -18 l 5,3,-1
 1 744 l 5,0,-1
EndSplineSet
Validated: 1
EndChar
